<?xml version="1.0" encoding="utf-8"?>
<!--
  Source: https://openclipart.org/detail/339652/male-human-profile-head-sideview-with-brain
  License: CC0 / Public Domain
  Edited locally for color and framing only.
-->
<svg version="1.1" id="Layer_1" xmlns="http://www.w3.org/2000/svg" xmlns:xlink="http://www.w3.org/1999/xlink" x="0px" y="0px"
	 viewBox="26 4 426 454" style="enable-background:new 0 0 480 480;" xml:space="preserve">
<defs>
	<linearGradient id="brain-gradient" gradientUnits="userSpaceOnUse" x1="151.5181" y1="80.8864" x2="379.4466" y2="309.4846">
		<stop  offset="0" style="stop-color:#FFBE92"/>
		<stop  offset="0.48" style="stop-color:#F294A1"/>
		<stop  offset="1" style="stop-color:#FFD78F"/>
	</linearGradient>
</defs>
<style type="text/css">
	.st0{fill:#394454;}
	.st1{fill:url(#brain-gradient);}
</style>
<g>
	<path class="st0" d="M369.6,448.3c0,0-36.1-26.3-38.1-66.9s32.8-68.5,44.7-81.6c11.9-13.1,66.4-113.2,44.3-170.6
		C398.3,71.8,347.8,25.1,281,11.6s-104.2,7.4-104.2,7.4c-20.5,6.6-35.7,16.4-48,5.3c2.9,9,2.9,10.7,8.6,13.5
		c-8.6,0.8-24.2,1.6-30.8-3.7c5.3,9,14.4,12.3,17.6,13.5c-10.3,2.9-25,0-33.2-4.1c6.2,7,9.4,13.1,16,15.2
		c-11.5,1.2-24.2-1.6-33.7,6.2c13.9-2.6,20.1-0.9,23.4,5.3c-6.2,10.7-18.5,49.6-22.1,65.6s-6.6,19.7-5.3,33.6s7.8,29.1,7,36.9
		c-0.8,7.8-33.6,42.6-33.2,50.4c0.4,7.8,21.7,14.8,19.7,23c-2.1,8.2-7.8,26.7-3.3,30.3c4.5,3.7,6.7,3.8,6.7,3.8s-8.6,0.9-7.7,6.9
		s10.4,8,9.5,18.4s-9.7,34.9,5.4,40.2s67.2,18.5,96.4,10.3c14.8,16-3.7,54.5-3.7,54.5s44.7,31.2,95.1,28.7S369.6,448.3,369.6,448.3z
		"/>
	<path class="st1" d="M262.5,243.4c0,0,3.4,14,12,21.9c8.6,7.9,15.7,18.2,19.8,18.4s2.9-1.1,3.1-2.5c2.3,1.3,5.7,2.7,8.2,1
		c2.5-1.7,1-1.7,1.8-3.6c1.8-1,4.2-1.1,4.4-3.4c0.2-2.3-2.4-6.7-4-8c-1.6-1.3-7.9-9.8-7.8-15.8c8.6,1.1,14.8,4.5,25.2,2.7
		c10.3-1.8,11.8-4.5,14.6-4.5c2.8-0.1,6-0.7,7.9-1.3c1.9-0.5,10.2-1.2,12.7-3.9c2.5-2.7,0.5-2.3,1.7-3.2c1.2-0.9,3.4,0.4,5-0.8
		c1.7-1.2,0.5-2.7,1.3-3.9s2.2-1.7,2.7-3.2c0.4-1.5,0-2.6,0.5-3.4c0.5-0.8,8.1-6.6,9.7-10c-1.6-0.9-0.1-3.1-0.1-3.1s1.6-0.3,1.5-1.4
		c0-1.1-0.6-1.3-1.4-2c1.3-1.3,2.5-1.2,2.3-3s2.2-4.6-0.2-7.2c0.9-3.3,0.4-2.9-0.7-4.3c-1.1-1.4-0.1-3.4-4.4-4.5
		c2-2.2-4.2-2.2-5.4-4.4c5-2,20.4-4.2,21.8-13.2c4.1-2.7,7.2-3.9,6.7-12.7c-0.5-8.9-3.2-9-3.5-11.6c0.3-3.5,0.5-7.6,0.2-10
		c-0.3-2.4-2.7-4.8-3.7-6.4c0.5-4.3,2.7-12.2-5.2-17.4c-1.1-9.9-8.7-27.5-21.4-27c3.6-7.5-0.8-11.3-6.8-13.5
		c-6-2.2-5.6-8.6-6.8-10.3c-1.3-1.7-7.4-6.6-12.3-6.8c-2.7-2.9-23.4-12.6-32.3-10.4c-5-4.3-30-7.2-34.9-4.9
		c-0.4-5.9-20.6-7.5-34.9-6.6c-4.8-3.3-27-1.4-34,2.4c-12.1-3-33.6,10.2-35.1,13.3c-9.2,1.5-44.4,20.6-45.5,25.3
		c-7.6,2.6-8.7,7.5-8.8,9.8c-4.9,2.9-6.6,5.3-6.2,7.1c-5.9,1.4-7.7,10-7,15.4c-2.3,7.1-6.2,7-6.3,13.7c-0.2,6.7-2,5.6-0.5,9
		c1.5,3.4-2.5,1.4-0.4,6.4s1.1,6.3,2.7,8.5c-1.9,1.9-2.7,2.6-1.8,4.4s4.5,5.4,4.5,7c0,1.6-0.2,5.2,1.1,7.3c1.3,2,5.9,8.9,11.4,11.2
		c5.5,2.2,11.6,1.8,12.8,1.8s3.5,5.4,7.8,5.9c4.2,0.6,15.6,2.5,19.6-0.4s7.3-2.8,10.3-2.4c3,0.5,9.9,0.4,10.6,3.9
		c0.7,3.5-2.7,2.7-3.1,8.2c-0.4,5.5,3.5,9.9,6.1,10.6c2.6,0.7,20.5,7.6,24.7,10.3c4.2,2.7,16.5,7.4,20.4,7.5s12.5,1.9,17.5,5.5
		c5.1,3.6,9.8,9.1,13.7,10.3C258.5,242.4,260.4,243.1,262.5,243.4z"/>
</g>
</svg>
