<?xml version="1.0" encoding="UTF-8" standalone="no"?>
<svg
   width="352"
   height="198"
   version="1.1"
   id="svg6"
   sodipodi:docname="Mathematica_Logo.svg"
   inkscape:version="1.2 (dc2aeda, 2022-05-15)"
   xmlns:inkscape="http://www.inkscape.org/namespaces/inkscape"
   xmlns:sodipodi="http://sodipodi.sourceforge.net/DTD/sodipodi-0.dtd"
   xmlns="http://www.w3.org/2000/svg"
   xmlns:svg="http://www.w3.org/2000/svg">
  <defs
     id="defs10" />
  <sodipodi:namedview
     id="namedview8"
     pagecolor="#505050"
     bordercolor="#eeeeee"
     borderopacity="1"
     inkscape:showpageshadow="0"
     inkscape:pageopacity="0"
     inkscape:pagecheckerboard="0"
     inkscape:deskcolor="#505050"
     showgrid="false"
     inkscape:zoom="4.4292929"
     inkscape:cx="95.049031"
     inkscape:cy="99.22577"
     inkscape:window-width="1652"
     inkscape:window-height="1027"
     inkscape:window-x="57"
     inkscape:window-y="25"
     inkscape:window-maximized="0"
     inkscape:current-layer="svg6" />
  <path
     fill="#dd1100"
     d="M 270,130 243,99 270,68 230,60 234,19 197,35 176,0 155,35 118,19 l 4,41 -40,8 27,31 -27,31 40,8 -4,41 37,-16 21,35 21,-35 37,16 -4,-41"
     id="path2" />
  <path
     fill="#ffffff"
     d="m 199,68 c 0,0 -9,6 -23,6 -14,0 -22,-6 -22,-6 0,0 2,10 -1,23 -3,8 -7,14 -13,19 0,0 12,2 21,8 9,7 15,19 15,19 0,0 5,-12 14,-18 9,-7 22,-8 22,-8 0,0 -9,-11 -13,-20 -4,-10 0,-23 0,-23 z m -13,44 c -6,4 -10,11 -10,11 l -10,-11 -13,-5 c 0,0 5,-7 7,-14 2,-4 2,-9 2,-14 0,0 7,3 14,3 6,0 14,-3 14,-3 0,0 -2,8 1,15 2,6 8,13 8,13 z m 28,-27 c -2,-7 5,-45 5,-45 0,0 -26,18 -44,18 -18,0 -42,-18 -42,-18 0,0 8,27 3,45 -4,17 -29,37 -29,37 0,0 32,1 44,10 13,8 25,40 25,40 0,0 16,-35 23,-40 7,-5 46,-11 46,-11 0,0 -28,-28 -31,-36 z m -19,41 c -13,8 -19,28 -19,28 0,0 -10,-22 -20,-29 -10,-7 -32,-9 -32,-9 0,0 17,-14 21,-28 4,-13 -1,-33 -1,-33 0,0 18,11 31,11 14,0 33,-11 33,-11 0,0 -6,21 -1,33 4,13 21,28 21,28 0,0 -20,1 -33,10"
     id="path4" />
</svg>
