<svg xmlns="http://www.w3.org/2000/svg" viewBox="0 0 512 512" xml:space="preserve"><g style="stroke:none;stroke-opacity:1"><rect width="512" height="512" ry="59" style="clip-rule:evenodd;fill:#26517c;fill-opacity:1;fill-rule:evenodd;stroke:none;stroke-opacity:1;paint-order:fill markers stroke"/></g><g style="fill:#fff;fill-opacity:1;stroke:#26517c;stroke-width:3.00204182;stroke-linejoin:miter;stroke-miterlimit:0;stroke-dasharray:none;stroke-opacity:1;paint-order:normal"><path d="M207.167 127.638 53.749 281.018 155.125 382.37c12.716 12.712 33.91 12.712 43.918 2.707L94.96 281.019l135.52-135.487 83.478 83.457-52.042 52.03 20.605 20.6 72.647-72.63-101.375-101.35c-12.716-12.713-33.91-12.713-46.626 0zm106.79-2.707L418.042 228.99l-135.52 135.488-83.478-83.458 52.042-52.03-20.605-20.6-72.647 72.63 101.375 101.35c12.716 12.713 33.91 12.713 46.626 0l153.418-153.38-101.376-101.35c-12.716-12.713-33.91-12.713-43.918-2.708z" style="clip-rule:evenodd;fill:#fff;fill-opacity:1;fill-rule:evenodd;stroke:#f7ffff;stroke-width:16.01088905;stroke-linecap:square;stroke-linejoin:round;stroke-miterlimit:0;stroke-dasharray:none;stroke-opacity:1;paint-order:normal" transform="matrix(.9992 0 0 .99944 -.295 1.139)"/></g><rect style="fill:none;fill-opacity:1;stroke:#fff;stroke-width:9.94840527;stroke-linecap:butt;stroke-linejoin:round;stroke-miterlimit:4;stroke-dasharray:none;stroke-opacity:1;paint-order:markers fill stroke" width="472.052" height="472.052" x="19.974" y="19.974" rx="42.733"/></svg>