<?xml version="1.0" encoding="UTF-8" standalone="no"?>
<!-- Generator: Adobe Illustrator 16.0.4, SVG Export Plug-In . SVG Version: 6.00 Build 0)  -->

<svg
   version="1.1"
   id="Layer_1"
   x="0px"
   y="0px"
   width="612.17798"
   height="344.35001"
   viewBox="0 0 612.17798 344.35"
   enable-background="new 0 0 306 344.35"
   xml:space="preserve"
   sodipodi:docname="ISO_C++_Logo.svg"
   inkscape:version="1.2 (dc2aeda, 2022-05-15)"
   xmlns:inkscape="http://www.inkscape.org/namespaces/inkscape"
   xmlns:sodipodi="http://sodipodi.sourceforge.net/DTD/sodipodi-0.dtd"
   xmlns="http://www.w3.org/2000/svg"
   xmlns:svg="http://www.w3.org/2000/svg"><defs
   id="defs23" /><sodipodi:namedview
   id="namedview21"
   pagecolor="#505050"
   bordercolor="#eeeeee"
   borderopacity="1"
   inkscape:showpageshadow="0"
   inkscape:pageopacity="0"
   inkscape:pagecheckerboard="0"
   inkscape:deskcolor="#505050"
   showgrid="false"
   inkscape:zoom="1.2734137"
   inkscape:cx="225.37845"
   inkscape:cy="80.492305"
   inkscape:window-width="1652"
   inkscape:window-height="1027"
   inkscape:window-x="135"
   inkscape:window-y="25"
   inkscape:window-maximized="0"
   inkscape:current-layer="Layer_1" />





<g
   id="g250"
   transform="translate(71.418759,-0.78529078)"><path
     fill="#00599c"
     d="m 383.77724,259.04729 c 2.401,-4.159 3.893,-8.845 3.893,-13.053 V 99.925291 c 0,-4.208 -1.49,-8.893 -3.892,-13.052 l -149.108,86.086999 z"
     id="path2" /><path
     fill="#004482"
     d="m 247.92024,341.97829 126.5,-73.034 c 3.644,-2.104 6.956,-5.737 9.357,-9.897 l -149.107,-86.087 -149.106999,86.088 c 2.401,4.159 5.714,7.793 9.357,9.896 l 126.499999,73.034 c 7.287,4.208 19.213,4.208 26.5,0 z"
     id="path4" /><path
     fill="#659ad2"
     d="m 383.77824,86.872291 c -2.402,-4.16 -5.715,-7.793 -9.358,-9.897 l -126.5,-73.0340002 c -7.287,-4.20800002 -19.213,-4.20800002 -26.5,0 L 94.920241,76.975291 c -7.288,4.207 -13.25,14.535 -13.25,22.95 V 245.99429 c 0,4.208 1.491,8.894 3.893,13.053 l 149.106999,-86.087 z"
     id="path6" /><g
     id="g10"
     transform="translate(81.670241,0.78529078)">
	<path
   fill="#ffffff"
   d="m 153,274.175 c -56.243,0 -102,-45.757 -102,-102 0,-56.243 45.757,-102 102,-102 36.292,0 70.139,19.53 88.331,50.968 l -44.143,25.544 C 188.083,130.951 171.15,121.175 153,121.175 c -28.122,0 -51,22.878 -51,51 0,28.121 22.878,51 51,51 18.152,0 35.085,-9.776 44.191,-25.515 l 44.143,25.543 c -18.192,31.441 -52.04,50.972 -88.334,50.972 z"
   id="path8" />
</g><g
     id="g14"
     transform="translate(81.670241,0.78529078)">
	<polygon
   fill="#ffffff"
   points="221,177.841 232.334,177.841 232.334,189.175 243.666,189.175 243.666,177.841 255,177.841 255,166.508 243.666,166.508 243.666,155.175 232.334,155.175 232.334,166.508 221,166.508 "
   id="polygon12" />
</g><g
     id="g18"
     transform="translate(81.670241,0.78529078)">
	<polygon
   fill="#ffffff"
   points="263.5,177.841 274.834,177.841 274.834,189.175 286.166,189.175 286.166,177.841 297.5,177.841 297.5,166.508 286.166,166.508 286.166,155.175 274.834,155.175 274.834,166.508 263.5,166.508 "
   id="polygon16" />
</g></g>
</svg>
