<?xml version="1.0" encoding="UTF-8"?>
<svg xmlns="http://www.w3.org/2000/svg" xmlns:xlink="http://www.w3.org/1999/xlink" width="443pt" height="341pt" viewBox="0 0 443 341" version="1.1">
<defs>
<clipPath id="clip1">
  <path d="M 0 0.640625 L 442.214844 0.640625 L 442.214844 340.941406 L 0 340.941406 Z M 0 0.640625 "/>
</clipPath>
</defs>
<g id="surface1">
<path style=" stroke:none;fill-rule:nonzero;fill:rgb(75.299072%,75.299072%,75.299072%);fill-opacity:1;" d="M 157.792969 287.460938 L 157.792969 285.539062 L 169.3125 282.660156 L 181.074219 280.019531 L 192.832031 277.140625 L 204.355469 274.261719 L 216.113281 271.378906 L 227.875 268.742188 L 239.394531 265.859375 L 251.152344 263.21875 L 262.675781 260.339844 L 274.433594 257.699219 L 286.195312 254.820312 L 297.714844 252.179688 L 309.472656 249.300781 L 321.234375 246.660156 L 332.753906 243.78125 L 344.515625 241.140625 L 356.035156 238.261719 L 367.792969 235.621094 L 379.554688 232.980469 L 391.074219 230.339844 L 402.835938 227.460938 L 414.59375 224.820312 L 426.113281 222.179688 L 426.113281 287.460938 L 157.792969 287.460938 "/>
<path style=" stroke:none;fill-rule:nonzero;fill:rgb(100%,84.698486%,100%);fill-opacity:1;" d="M 75.953125 99.941406 L 134.515625 90.101562 L 192.832031 80.261719 L 309.472656 61.058594 L 367.792969 51.222656 L 426.113281 41.621094 L 426.113281 7.539062 L 75.953125 7.539062 L 75.953125 99.941406 "/>
<path style="fill:none;stroke-width:0.667;stroke-linecap:butt;stroke-linejoin:round;stroke:rgb(0%,0%,0%);stroke-opacity:1;stroke-miterlimit:10;" d="M 76.210938 53.378906 L 76.210938 333.460938 " transform="matrix(1,0,0,-1,0,341)"/>
<path style="fill-rule:nonzero;fill:rgb(100%,100%,75.299072%);fill-opacity:1;stroke-width:0.667;stroke-linecap:butt;stroke-linejoin:round;stroke:rgb(75.299072%,36.099243%,0%);stroke-opacity:1;stroke-miterlimit:10;" d="M 284.53125 140.261719 L 284.289062 149.859375 L 283.328125 159.460938 L 281.648438 168.339844 L 279.25 176.5 L 276.371094 183.9375 L 273.011719 190.179688 L 269.410156 195.21875 L 265.328125 198.820312 L 261.011719 201.21875 L 256.691406 201.9375 L 252.128906 201.21875 L 248.050781 198.820312 L 243.96875 195.21875 L 240.128906 190.179688 L 236.769531 183.9375 L 233.890625 176.5 L 231.730469 168.339844 L 230.050781 159.460938 L 229.089844 149.859375 L 228.609375 140.261719 L 229.089844 130.660156 L 230.050781 121.300781 L 231.730469 112.421875 L 233.890625 104.019531 L 236.769531 96.816406 L 240.128906 90.578125 L 243.96875 85.300781 L 248.050781 81.699219 L 252.128906 79.539062 L 256.691406 78.578125 L 261.011719 79.539062 L 265.328125 81.699219 L 269.410156 85.300781 L 273.011719 90.578125 L 276.371094 96.816406 L 279.25 104.019531 L 281.648438 112.421875 L 283.328125 121.300781 L 284.289062 130.660156 L 284.53125 140.261719 " transform="matrix(1,0,0,-1,0,341)"/>
<path style="fill-rule:nonzero;fill:rgb(100%,100%,0%);fill-opacity:1;stroke-width:0.667;stroke-linecap:butt;stroke-linejoin:round;stroke:rgb(75.299072%,36.099243%,0%);stroke-opacity:1;stroke-miterlimit:10;" d="M 270.609375 140.140625 L 270.371094 144.941406 L 269.890625 149.742188 L 269.167969 154.0625 L 267.96875 158.382812 L 266.53125 161.980469 L 264.851562 165.101562 L 262.929688 167.742188 L 261.011719 169.421875 L 258.851562 170.621094 L 256.691406 171.101562 L 254.289062 170.621094 L 252.371094 169.421875 L 250.210938 167.742188 L 248.289062 165.101562 L 246.609375 161.980469 L 245.410156 158.382812 L 244.210938 154.0625 L 243.25 149.742188 L 242.769531 144.941406 L 242.53125 140.140625 L 242.769531 135.339844 L 243.25 130.78125 L 244.210938 126.222656 L 245.410156 122.140625 L 246.609375 118.300781 L 248.289062 115.179688 L 250.210938 112.78125 L 252.371094 110.859375 L 254.289062 109.660156 L 256.691406 109.421875 L 258.851562 109.660156 L 261.011719 110.859375 L 262.929688 112.78125 L 264.851562 115.179688 L 266.53125 118.300781 L 267.96875 122.140625 L 269.167969 126.222656 L 269.890625 130.78125 L 270.371094 135.339844 L 270.609375 140.140625 " transform="matrix(1,0,0,-1,0,341)"/>
<g clip-path="url(#clip1)" clip-rule="nonzero">
<path style="fill:none;stroke-width:1;stroke-linecap:butt;stroke-linejoin:round;stroke:rgb(0%,0%,0%);stroke-opacity:1;stroke-miterlimit:10;" d="M 1.554688 231.140625 L 3.953125 232.339844 L 5.632812 233.058594 L 8.515625 233.539062 L 10.914062 233.539062 L 13.792969 233.058594 L 15.472656 232.339844 L 17.871094 231.140625 M 0.355469 230.179688 L 1.554688 231.140625 L 3.234375 232.339844 L 5.632812 233.539062 L 8.515625 234.019531 L 10.914062 234.019531 L 13.792969 233.539062 L 15.953125 232.339844 L 17.871094 231.140625 L 18.832031 230.179688 M 2.753906 224.421875 L 2.753906 227.78125 M 2.753906 217.460938 L 2.753906 220.820312 M 2.753906 226.578125 L 14.992188 222.5 M 2.753906 219.140625 L 13.074219 222.5 M 2.753906 218.421875 L 14.992188 222.5 M 6.832031 210.980469 L 7.3125 209.78125 L 8.515625 208.820312 L 10.191406 208.101562 L 11.394531 208.101562 L 13.074219 208.820312 L 14.273438 209.78125 L 14.992188 210.980469 M 10.191406 214.578125 L 8.515625 214.578125 L 7.3125 213.859375 M 10.191406 208.101562 L 10.191406 215.058594 L 8.992188 215.058594 L 8.035156 214.578125 L 7.3125 213.859375 L 6.832031 212.660156 L 6.832031 210.980469 L 7.3125 209.300781 L 8.515625 208.101562 L 10.191406 207.621094 L 11.394531 207.621094 L 13.074219 208.101562 L 14.273438 209.300781 L 14.992188 210.980469 L 14.992188 212.179688 L 14.273438 213.859375 L 13.074219 215.058594 M 10.191406 200.660156 L 10.191406 204.738281 M 10.191406 203.058594 L 14.992188 203.058594 M 10.191406 202.339844 L 14.992188 202.339844 M 2.753906 198.261719 L 3.234375 197.058594 L 4.433594 196.101562 L 5.632812 195.378906 L 7.3125 194.898438 L 10.191406 194.898438 L 11.871094 195.378906 L 13.074219 196.101562 L 14.273438 197.058594 L 14.992188 198.261719 M 4.433594 202.339844 L 6.113281 203.058594 L 2.753906 203.058594 L 4.433594 202.339844 L 3.234375 201.140625 L 2.753906 199.460938 L 2.753906 198.261719 L 3.234375 196.578125 L 4.433594 195.378906 L 5.632812 194.898438 L 7.3125 194.179688 L 10.191406 194.179688 L 11.871094 194.898438 L 13.074219 195.378906 L 14.273438 196.578125 L 14.992188 198.261719 L 14.992188 199.460938 L 14.273438 201.140625 L 13.074219 202.339844 M 1.554688 189.621094 L 3.953125 188.421875 L 5.632812 187.941406 L 8.515625 187.460938 L 10.914062 187.460938 L 13.792969 187.941406 L 15.472656 188.421875 L 17.871094 189.621094 M 0.355469 190.820312 L 1.554688 189.621094 L 3.234375 188.421875 L 5.632812 187.460938 L 8.515625 186.738281 L 10.914062 186.738281 L 13.792969 187.460938 L 15.953125 188.421875 L 17.871094 189.621094 L 18.832031 190.820312 M 15.472656 170.660156 L 15.472656 173.539062 M 13.074219 172.101562 L 19.074219 172.101562 L 20.035156 172.339844 L 20.515625 172.820312 M 13.074219 171.859375 L 19.074219 171.859375 L 20.035156 172.101562 L 20.515625 172.820312 L 20.515625 173.539062 L 20.035156 174.261719 L 19.3125 174.5 M 14.992188 164.898438 L 14.992188 168.738281 M 14.992188 158.421875 L 14.992188 162.5 M 14.992188 152.179688 L 14.992188 156.261719 M 6.832031 152.179688 L 6.832031 154.339844 M 6.832031 164.898438 L 7.3125 165.859375 L 8.515625 166.578125 L 14.992188 166.578125 M 8.515625 160.820312 L 7.3125 162.019531 L 6.832031 163.699219 L 6.832031 164.898438 L 7.3125 166.578125 L 8.515625 167.058594 L 14.992188 167.058594 M 6.832031 158.421875 L 7.3125 159.621094 L 8.515625 160.101562 L 14.992188 160.101562 M 8.515625 154.339844 L 7.3125 155.539062 L 6.832031 157.21875 L 6.832031 158.421875 L 7.3125 160.101562 L 8.515625 160.820312 L 14.992188 160.820312 M 6.832031 154.339844 L 14.992188 154.339844 M 6.832031 153.859375 L 14.992188 153.859375 M 289.792969 19.460938 L 290.992188 17.058594 L 291.714844 15.378906 L 292.195312 12.5 L 292.195312 10.101562 L 291.714844 7.21875 L 290.992188 5.539062 L 289.792969 3.140625 M 288.832031 20.421875 L 289.792969 19.460938 L 290.992188 17.539062 L 292.195312 15.378906 L 292.675781 12.5 L 292.675781 10.101562 L 292.195312 7.21875 L 290.992188 4.820312 L 289.792969 3.140625 L 288.832031 1.941406 M 282.832031 18.261719 L 286.433594 18.261719 M 276.113281 18.261719 L 279.472656 18.261719 M 285.234375 18.261719 L 281.152344 6.019531 M 277.792969 18.261719 L 281.152344 7.699219 M 277.074219 18.261719 L 281.152344 6.019531 M 269.632812 14.179688 L 268.433594 13.699219 L 267.234375 12.5 L 266.753906 10.820312 L 266.753906 9.621094 L 267.234375 7.699219 L 268.433594 6.738281 L 269.632812 6.019531 M 273.234375 10.820312 L 273.234375 12.5 L 272.515625 13.699219 M 266.753906 10.820312 L 273.714844 10.820312 L 273.714844 11.78125 L 273.234375 12.980469 L 272.515625 13.699219 L 271.3125 14.179688 L 269.632812 14.179688 L 267.953125 13.699219 L 266.753906 12.5 L 266.273438 10.820312 L 266.273438 9.621094 L 266.753906 7.699219 L 267.953125 6.738281 L 269.632812 6.019531 L 270.832031 6.019531 L 272.515625 6.738281 L 273.714844 7.699219 M 259.3125 10.820312 L 263.394531 10.820312 M 261.472656 10.820312 L 261.472656 6.019531 M 260.992188 10.820312 L 260.992188 6.019531 M 256.914062 18.261719 L 255.714844 17.539062 L 254.753906 16.578125 L 254.035156 15.378906 L 253.554688 13.699219 L 253.554688 10.820312 L 254.035156 8.898438 L 254.753906 7.699219 L 255.714844 6.738281 L 256.914062 6.019531 M 260.992188 16.578125 L 261.472656 14.660156 L 261.472656 18.261719 L 260.992188 16.578125 L 259.792969 17.539062 L 258.113281 18.261719 L 256.914062 18.261719 L 255.234375 17.539062 L 254.035156 16.578125 L 253.554688 15.378906 L 252.832031 13.699219 L 252.832031 10.820312 L 253.554688 8.898438 L 254.035156 7.699219 L 255.234375 6.738281 L 256.914062 6.019531 L 258.113281 6.019531 L 259.792969 6.738281 L 260.992188 7.699219 M 248.273438 19.460938 L 247.074219 17.058594 L 246.59375 15.378906 L 245.875 12.5 L 245.875 10.101562 L 246.59375 7.21875 L 247.074219 5.539062 L 248.273438 3.140625 M 249.472656 20.421875 L 248.273438 19.460938 L 247.074219 17.539062 L 245.875 15.378906 L 245.394531 12.5 L 245.394531 10.101562 L 245.875 7.21875 L 247.074219 4.820312 L 248.273438 3.140625 L 249.472656 1.941406 M 230.753906 0.5 L 233.152344 0.5 M 226.914062 0.5 L 229.3125 0.5 M 226.914062 7.699219 L 228.355469 7.699219 M 230.753906 5.300781 L 231.472656 5.058594 L 231.714844 4.339844 L 231.714844 0.5 M 228.355469 4.339844 L 229.074219 5.058594 L 230.035156 5.300781 L 230.753906 5.300781 L 231.714844 5.058594 L 232.195312 4.339844 L 232.195312 0.5 M 228.355469 7.699219 L 228.355469 0.5 M 227.875 7.699219 L 227.875 0.5 M 220.914062 6.019531 L 224.992188 6.019531 M 214.671875 6.019531 L 218.753906 6.019531 M 208.433594 6.019531 L 212.273438 6.019531 M 208.433594 14.179688 L 210.59375 14.179688 M 220.914062 14.179688 L 222.113281 13.699219 L 222.832031 12.5 L 222.832031 6.019531 M 217.074219 12.5 L 218.035156 13.699219 L 219.953125 14.179688 L 220.914062 14.179688 L 222.832031 13.699219 L 223.3125 12.5 L 223.3125 6.019531 M 214.671875 14.179688 L 215.875 13.699219 L 216.355469 12.5 L 216.355469 6.019531 M 210.59375 12.5 L 211.792969 13.699219 L 213.472656 14.179688 L 214.671875 14.179688 L 216.355469 13.699219 L 217.074219 12.5 L 217.074219 6.019531 M 210.59375 14.179688 L 210.59375 6.019531 M 210.113281 14.179688 L 210.113281 6.019531 M 426.113281 333.621094 L 413.875 333.621094 M 426.113281 305.78125 L 420.113281 305.78125 M 426.113281 277.699219 L 420.113281 277.699219 M 426.113281 249.621094 L 420.113281 249.621094 M 426.113281 221.78125 L 420.113281 221.78125 M 426.113281 193.699219 L 413.875 193.699219 M 426.113281 165.621094 L 420.113281 165.621094 M 426.113281 137.78125 L 420.113281 137.78125 M 426.113281 109.699219 L 420.113281 109.699219 M 426.113281 81.621094 L 420.113281 81.621094 M 426.113281 53.539062 L 413.875 53.539062 M 426.113281 53.539062 L 426.113281 333.621094 M 60.355469 327.621094 L 61.554688 328.339844 L 62.03125 328.820312 L 62.753906 330.019531 L 63.234375 332.898438 L 63.234375 334.578125 L 62.753906 337.460938 L 62.03125 338.660156 L 61.554688 339.140625 L 60.355469 339.859375 M 59.152344 339.859375 L 57.472656 339.140625 L 56.273438 337.460938 L 55.792969 334.578125 L 55.792969 332.898438 L 56.273438 330.019531 L 57.472656 328.339844 L 59.152344 327.621094 L 60.355469 327.621094 L 62.03125 328.339844 L 63.234375 330.019531 L 63.953125 332.898438 L 63.953125 334.578125 L 63.234375 337.460938 L 62.03125 339.140625 L 60.355469 339.859375 L 59.152344 339.859375 L 57.953125 339.140625 L 57.472656 338.660156 L 56.992188 337.460938 L 56.273438 334.578125 L 56.273438 332.898438 L 56.992188 330.019531 L 57.472656 328.820312 L 57.953125 328.339844 L 59.152344 327.621094 M 49.3125 327.621094 L 50.511719 328.339844 L 51.234375 328.820312 L 51.714844 330.019531 L 51.714844 332.179688 L 51.234375 333.378906 L 50.511719 334.101562 L 49.3125 334.578125 M 47.152344 334.578125 L 45.953125 334.101562 L 45.234375 333.378906 L 44.753906 332.179688 L 44.753906 330.019531 L 45.234375 328.820312 L 45.953125 328.339844 L 47.152344 327.621094 M 47.152344 334.578125 L 45.234375 334.101562 L 44.753906 333.378906 L 44.273438 332.179688 L 44.273438 330.019531 L 44.753906 328.820312 L 45.234375 328.339844 L 47.152344 327.621094 L 49.3125 327.621094 L 51.234375 328.339844 L 51.714844 328.820312 L 52.191406 330.019531 L 52.191406 332.179688 L 51.714844 333.378906 L 51.234375 334.101562 L 49.3125 334.578125 M 49.3125 334.578125 L 50.511719 335.058594 L 51.234375 336.261719 L 51.234375 338.179688 L 50.511719 339.140625 L 49.3125 339.859375 M 47.152344 339.859375 L 45.234375 339.140625 L 44.753906 338.179688 L 44.753906 336.261719 L 45.234375 335.058594 L 47.152344 334.578125 L 49.3125 334.578125 L 51.234375 335.058594 L 51.714844 336.261719 L 51.714844 338.179688 L 51.234375 339.140625 L 49.3125 339.859375 L 47.152344 339.859375 L 45.953125 339.140625 L 45.234375 338.179688 L 45.234375 336.261719 L 45.953125 335.058594 L 47.152344 334.578125 M 34.433594 327.621094 L 39.472656 327.621094 M 36.59375 339.140625 L 36.59375 327.621094 M 34.433594 337.460938 L 35.632812 338.179688 L 37.3125 339.859375 L 37.3125 327.621094 M 75.953125 333.621094 L 88.433594 333.621094 M 75.953125 305.78125 L 82.191406 305.78125 M 75.953125 277.699219 L 82.191406 277.699219 M 75.953125 249.621094 L 82.191406 249.621094 M 75.953125 221.78125 L 82.191406 221.78125 M 56.992188 199.21875 L 59.871094 199.21875 L 62.753906 199.699219 M 56.992188 199.699219 L 62.753906 199.699219 M 60.355469 195.621094 L 61.554688 195.140625 L 62.753906 193.941406 L 63.234375 192.261719 L 63.234375 191.058594 L 62.753906 189.378906 L 61.554688 188.179688 L 60.355469 187.699219 M 56.992188 199.699219 L 55.792969 193.941406 L 56.992188 195.140625 L 58.671875 195.621094 L 60.355469 195.621094 L 62.03125 195.140625 L 63.234375 193.941406 L 63.953125 192.261719 L 63.953125 191.058594 L 63.234375 189.378906 L 62.03125 188.179688 L 60.355469 187.699219 L 58.671875 187.699219 L 56.992188 188.179688 L 56.273438 188.898438 L 55.792969 189.859375 L 55.792969 190.578125 L 56.273438 191.058594 L 56.992188 190.578125 L 56.273438 189.859375 M 51.714844 196.339844 L 48.832031 193.460938 L 48.355469 192.261719 L 47.632812 190.578125 L 47.632812 187.699219 M 52.191406 199.699219 L 52.191406 198.019531 L 51.714844 196.339844 L 49.3125 193.460938 L 48.832031 192.261719 L 48.355469 190.578125 L 48.355469 187.699219 M 44.753906 198.5 L 45.953125 199.21875 L 47.152344 199.21875 L 50.03125 198.019531 M 44.273438 197.539062 L 44.753906 198.5 L 45.953125 199.699219 L 47.152344 199.699219 L 50.03125 198.019531 L 51.234375 198.019531 L 51.714844 198.5 L 52.191406 199.699219 M 44.273438 199.699219 L 44.273438 196.339844 M 34.433594 187.699219 L 39.472656 187.699219 M 36.59375 199.21875 L 36.59375 187.699219 M 34.433594 197.539062 L 35.632812 198.019531 L 37.3125 199.699219 L 37.3125 187.699219 M 75.953125 193.699219 L 88.433594 193.699219 M 75.953125 165.621094 L 82.191406 165.621094 M 75.953125 137.78125 L 82.191406 137.78125 M 75.953125 109.699219 L 82.191406 109.699219 M 75.953125 81.621094 L 82.191406 81.621094 M 61.554688 59.058594 L 60.355469 59.78125 M 60.355469 47.539062 L 61.554688 48.261719 L 62.035156 48.738281 L 62.753906 49.941406 L 63.234375 52.820312 L 63.234375 54.5 L 62.753906 57.378906 L 62.035156 58.578125 L 61.554688 59.058594 M 59.152344 59.78125 L 57.472656 59.058594 L 56.273438 57.378906 L 55.792969 54.5 L 55.792969 52.820312 L 56.273438 49.941406 L 57.472656 48.261719 L 59.152344 47.539062 L 60.355469 47.539062 L 62.035156 48.261719 L 63.234375 49.941406 L 63.953125 52.820312 L 63.953125 54.5 L 63.234375 57.378906 L 62.035156 59.058594 L 60.355469 59.78125 L 59.152344 59.78125 L 57.953125 59.058594 L 57.472656 58.578125 L 56.992188 57.378906 L 56.273438 54.5 L 56.273438 52.820312 L 56.992188 49.941406 L 57.472656 48.738281 L 57.953125 48.261719 L 59.152344 47.539062 M 51.714844 56.179688 L 48.832031 53.300781 L 48.355469 52.339844 L 47.632812 50.421875 L 47.632812 47.539062 M 52.191406 59.78125 L 52.191406 58.101562 L 51.714844 56.179688 L 49.3125 53.300781 L 48.832031 52.339844 L 48.355469 50.421875 L 48.355469 47.539062 M 44.753906 58.578125 L 45.953125 59.058594 L 47.152344 59.058594 L 50.035156 58.101562 M 44.273438 57.378906 L 44.753906 58.578125 L 45.953125 59.78125 L 47.152344 59.78125 L 50.035156 58.101562 L 51.234375 58.101562 L 51.714844 58.578125 L 52.191406 59.78125 M 44.273438 59.78125 L 44.273438 56.179688 M 34.433594 47.539062 L 39.472656 47.539062 M 36.59375 59.058594 L 36.59375 47.539062 M 34.433594 57.378906 L 35.632812 58.101562 L 37.3125 59.78125 L 37.3125 47.539062 M 75.953125 53.539062 L 88.433594 53.539062 M 75.953125 53.539062 L 75.953125 333.621094 M 426.113281 333.621094 L 426.113281 321.378906 M 367.792969 333.621094 L 367.792969 321.378906 M 309.472656 333.621094 L 309.472656 321.378906 M 251.152344 333.621094 L 251.152344 321.378906 M 192.832031 333.621094 L 192.832031 321.378906 M 134.515625 333.621094 L 134.515625 321.378906 M 75.953125 333.621094 L 75.953125 321.378906 M 75.953125 333.621094 L 426.113281 333.621094 M 438.832031 30.980469 L 440.035156 31.699219 L 440.511719 32.179688 L 441.234375 33.378906 L 441.234375 35.539062 L 440.511719 36.738281 L 440.035156 37.460938 L 438.832031 37.941406 M 436.671875 37.941406 L 435.472656 37.460938 L 434.753906 36.738281 L 434.273438 35.539062 L 434.273438 33.378906 L 434.753906 32.179688 L 435.472656 31.699219 L 436.671875 30.980469 M 436.671875 37.941406 L 434.753906 37.460938 L 434.273438 36.738281 L 433.792969 35.539062 L 433.792969 33.378906 L 434.273438 32.179688 L 434.753906 31.699219 L 436.671875 30.980469 L 438.832031 30.980469 L 440.511719 31.699219 L 441.234375 32.179688 L 441.714844 33.378906 L 441.714844 35.539062 L 441.234375 36.738281 L 440.511719 37.460938 L 438.832031 37.941406 M 438.832031 37.941406 L 440.035156 38.421875 L 440.511719 39.621094 L 440.511719 41.539062 L 440.035156 42.5 L 438.832031 43.21875 M 436.671875 43.21875 L 434.753906 42.5 L 434.273438 41.539062 L 434.273438 39.621094 L 434.753906 38.421875 L 436.671875 37.941406 L 438.832031 37.941406 L 440.511719 38.421875 L 441.234375 39.621094 L 441.234375 41.539062 L 440.511719 42.5 L 438.832031 43.21875 L 436.671875 43.21875 L 435.472656 42.5 L 434.753906 41.539062 L 434.753906 39.621094 L 435.472656 38.421875 L 436.671875 37.941406 M 423.953125 32.660156 L 426.832031 30.980469 L 428.992188 30.980469 L 429.714844 31.699219 L 430.195312 32.660156 L 430.195312 33.859375 M 422.035156 32.179688 L 422.753906 32.660156 L 423.953125 32.660156 L 426.832031 31.699219 L 428.511719 31.699219 L 429.714844 32.179688 L 430.195312 32.660156 M 427.3125 43.21875 L 428.511719 42.5 L 428.992188 42.019531 L 429.714844 40.820312 L 429.714844 39.621094 L 428.992188 38.421875 L 427.3125 37.460938 L 424.914062 36.261719 M 422.753906 40.820312 L 423.234375 40.339844 L 422.753906 39.621094 L 422.035156 40.339844 L 422.035156 40.820312 L 422.753906 42.019531 L 423.234375 42.5 L 424.914062 43.21875 L 427.3125 43.21875 L 428.992188 42.5 L 429.714844 42.019531 L 430.195312 40.820312 L 430.195312 39.621094 L 429.714844 38.421875 L 427.792969 37.460938 L 424.914062 36.261719 L 423.953125 35.539062 L 422.753906 34.578125 L 422.035156 32.660156 L 422.035156 30.980469 M 412.195312 30.980469 L 417.472656 30.980469 M 414.59375 42.5 L 414.59375 30.980469 M 412.195312 40.820312 L 413.394531 41.539062 L 415.3125 43.21875 L 415.3125 30.980469 M 426.113281 53.539062 L 426.113281 66.019531 M 382.914062 39.621094 L 380.035156 36.738281 L 379.3125 35.539062 L 378.832031 33.859375 L 378.832031 30.980469 M 383.394531 43.21875 L 383.394531 41.539062 L 382.914062 39.621094 L 380.515625 36.738281 L 380.035156 35.539062 L 379.3125 33.859375 L 379.3125 30.980469 M 375.953125 42.019531 L 377.152344 42.5 L 378.113281 42.5 L 380.992188 41.539062 M 375.234375 40.820312 L 375.953125 42.019531 L 377.152344 43.21875 L 378.113281 43.21875 L 380.992188 41.539062 L 382.195312 41.539062 L 382.914062 42.019531 L 383.394531 43.21875 M 375.234375 43.21875 L 375.234375 39.621094 M 365.632812 32.660156 L 368.515625 30.980469 L 370.671875 30.980469 L 371.394531 31.699219 L 371.875 32.660156 L 371.875 33.859375 M 363.714844 32.179688 L 364.433594 32.660156 L 365.632812 32.660156 L 368.515625 31.699219 L 370.195312 31.699219 L 371.394531 32.179688 L 371.875 32.660156 M 368.992188 43.21875 L 370.195312 42.5 L 370.671875 42.019531 L 371.394531 40.820312 L 371.394531 39.621094 L 370.671875 38.421875 L 368.992188 37.460938 L 366.59375 36.261719 M 364.433594 40.820312 L 364.914062 40.339844 L 364.433594 39.621094 L 363.714844 40.339844 L 363.714844 40.820312 L 364.433594 42.019531 L 364.914062 42.5 L 366.59375 43.21875 L 368.992188 43.21875 L 370.671875 42.5 L 371.394531 42.019531 L 371.875 40.820312 L 371.875 39.621094 L 371.394531 38.421875 L 369.472656 37.460938 L 366.59375 36.261719 L 365.632812 35.539062 L 364.433594 34.578125 L 363.714844 32.660156 L 363.714844 30.980469 M 353.875 30.980469 L 359.152344 30.980469 M 356.273438 42.5 L 356.273438 30.980469 M 353.875 40.820312 L 355.074219 41.539062 L 356.753906 43.21875 L 356.753906 30.980469 M 367.792969 53.539062 L 367.792969 66.019531 M 321.714844 30.980469 L 322.671875 31.699219 L 323.875 32.660156 L 324.59375 34.578125 L 324.59375 35.058594 L 323.875 36.738281 L 322.671875 37.941406 L 321.714844 38.421875 M 320.992188 43.21875 L 319.792969 42.5 L 318.59375 41.539062 L 318.113281 40.339844 L 317.632812 37.941406 L 317.632812 34.578125 L 318.113281 32.660156 L 319.3125 31.699219 L 320.515625 30.980469 M 323.875 41.539062 L 323.394531 40.820312 L 323.875 40.339844 L 324.59375 40.820312 L 324.59375 41.539062 L 323.875 42.5 L 322.671875 43.21875 L 320.992188 43.21875 L 319.3125 42.5 L 318.113281 41.539062 L 317.632812 40.339844 L 316.914062 37.941406 L 316.914062 34.578125 L 317.632812 32.660156 L 318.59375 31.699219 L 320.515625 30.980469 L 321.714844 30.980469 L 323.394531 31.699219 L 324.59375 32.660156 L 325.074219 34.578125 L 325.074219 35.058594 L 324.59375 36.738281 L 323.394531 37.941406 L 321.714844 38.421875 L 320.992188 38.421875 L 319.3125 37.941406 L 318.113281 36.738281 L 317.632812 35.058594 M 307.074219 32.660156 L 309.953125 30.980469 L 312.355469 30.980469 L 312.832031 31.699219 L 313.554688 32.660156 L 313.554688 33.859375 M 305.394531 32.179688 L 306.113281 32.660156 L 307.074219 32.660156 L 309.953125 31.699219 L 311.875 31.699219 L 312.832031 32.179688 L 313.554688 32.660156 M 310.671875 43.21875 L 311.875 42.5 L 312.355469 42.019531 L 312.832031 40.820312 L 312.832031 39.621094 L 312.355469 38.421875 L 310.671875 37.460938 L 308.273438 36.261719 M 306.59375 42.5 L 308.273438 43.21875 L 310.671875 43.21875 L 312.355469 42.5 L 312.832031 42.019531 L 313.554688 40.820312 L 313.554688 39.621094 L 312.832031 38.421875 L 311.152344 37.460938 L 308.273438 36.261719 L 307.074219 35.539062 L 306.113281 34.578125 L 305.394531 32.660156 L 305.394531 30.980469 M 306.113281 40.820312 L 306.59375 40.339844 L 306.113281 39.621094 L 305.394531 40.339844 L 305.394531 40.820312 L 306.113281 42.019531 L 306.59375 42.5 M 295.554688 30.980469 L 300.832031 30.980469 M 297.953125 42.5 L 297.953125 30.980469 M 295.554688 40.820312 L 296.753906 41.539062 L 298.433594 43.21875 L 298.433594 30.980469 M 309.472656 53.539062 L 309.472656 66.019531 M 259.792969 42.5 L 262.671875 42.5 L 265.554688 43.21875 M 259.792969 43.21875 L 265.554688 43.21875 M 263.152344 39.140625 L 264.355469 38.421875 L 265.554688 37.460938 L 266.035156 35.539062 L 266.035156 34.578125 L 265.554688 32.660156 L 264.355469 31.699219 L 263.152344 30.980469 M 259.792969 43.21875 L 258.59375 37.460938 L 259.792969 38.421875 L 261.472656 39.140625 L 263.152344 39.140625 L 265.074219 38.421875 L 266.035156 37.460938 L 266.753906 35.539062 L 266.753906 34.578125 L 266.035156 32.660156 L 265.074219 31.699219 L 263.152344 30.980469 L 261.472656 30.980469 L 259.792969 31.699219 L 259.3125 32.179688 L 258.59375 33.378906 L 258.59375 33.859375 L 259.3125 34.578125 L 259.792969 33.859375 L 259.3125 33.378906 M 248.753906 32.660156 L 251.632812 30.980469 L 254.035156 30.980469 L 254.515625 31.699219 L 255.234375 32.660156 L 255.234375 33.859375 M 247.074219 32.179688 L 247.554688 32.660156 L 248.753906 32.660156 L 251.632812 31.699219 L 253.3125 31.699219 L 254.515625 32.179688 L 255.234375 32.660156 M 252.355469 43.21875 L 253.3125 42.5 L 254.035156 42.019531 L 254.515625 40.820312 L 254.515625 39.621094 L 254.035156 38.421875 L 252.355469 37.460938 L 249.953125 36.261719 M 247.554688 40.820312 L 248.273438 40.339844 L 247.554688 39.621094 L 247.074219 40.339844 L 247.074219 40.820312 L 247.554688 42.019531 L 248.273438 42.5 L 249.953125 43.21875 L 252.355469 43.21875 L 254.035156 42.5 L 254.515625 42.019531 L 255.234375 40.820312 L 255.234375 39.621094 L 254.515625 38.421875 L 252.832031 37.460938 L 249.953125 36.261719 L 248.753906 35.539062 L 247.554688 34.578125 L 247.074219 32.660156 L 247.074219 30.980469 M 237.234375 30.980469 L 242.515625 30.980469 M 239.632812 42.5 L 239.632812 30.980469 M 237.234375 40.820312 L 238.433594 41.539062 L 240.113281 43.21875 L 240.113281 30.980469 M 251.152344 53.539062 L 251.152344 66.019531 M 203.632812 30.980469 L 207.714844 30.980469 M 206.035156 43.21875 L 199.792969 34.578125 L 208.914062 34.578125 M 206.035156 43.21875 L 206.035156 30.980469 M 205.554688 42.019531 L 205.554688 30.980469 M 190.433594 32.660156 L 193.3125 30.980469 L 195.714844 30.980469 L 196.195312 31.699219 L 196.914062 32.660156 L 196.914062 33.859375 M 188.753906 32.179688 L 189.234375 32.660156 L 190.433594 32.660156 L 193.3125 31.699219 L 194.992188 31.699219 L 196.195312 32.179688 L 196.914062 32.660156 M 194.035156 43.21875 L 194.992188 42.5 L 195.714844 42.019531 L 196.195312 40.820312 L 196.195312 39.621094 L 195.714844 38.421875 L 194.035156 37.460938 L 191.632812 36.261719 M 189.234375 40.820312 L 189.953125 40.339844 L 189.234375 39.621094 L 188.753906 40.339844 L 188.753906 40.820312 L 189.234375 42.019531 L 189.953125 42.5 L 191.632812 43.21875 L 194.035156 43.21875 L 195.714844 42.5 L 196.195312 42.019531 L 196.914062 40.820312 L 196.914062 39.621094 L 196.195312 38.421875 L 194.511719 37.460938 L 191.632812 36.261719 L 190.433594 35.539062 L 189.234375 34.578125 L 188.753906 32.660156 L 188.753906 30.980469 M 178.914062 30.980469 L 184.191406 30.980469 M 181.3125 42.5 L 181.3125 30.980469 M 178.914062 40.820312 L 180.113281 41.539062 L 181.792969 43.21875 L 181.792969 30.980469 M 192.832031 53.539062 L 192.832031 66.019531 M 148.914062 36.738281 L 149.394531 35.058594 L 149.394531 33.378906 L 148.914062 32.179688 L 148.191406 31.699219 L 147.234375 30.980469 M 147.234375 43.21875 L 148.191406 42.5 L 148.914062 41.539062 L 148.914062 39.621094 L 148.191406 38.421875 L 147.234375 37.941406 L 148.191406 37.460938 L 149.394531 36.261719 L 150.113281 35.058594 L 150.113281 33.378906 L 149.394531 32.179688 L 148.914062 31.699219 L 147.234375 30.980469 L 144.832031 30.980469 L 143.152344 31.699219 L 142.433594 32.179688 L 141.953125 33.378906 L 141.953125 33.859375 L 142.433594 34.578125 L 143.152344 33.859375 L 142.433594 33.378906 M 142.433594 40.820312 L 143.152344 40.339844 L 142.433594 39.621094 L 141.953125 40.339844 L 141.953125 40.820312 L 142.433594 42.019531 L 143.152344 42.5 L 144.832031 43.21875 L 147.234375 43.21875 L 148.914062 42.5 L 149.394531 41.539062 L 149.394531 39.621094 L 148.914062 38.421875 L 147.234375 37.941406 L 145.3125 37.941406 M 132.113281 32.660156 L 134.992188 30.980469 L 137.394531 30.980469 L 137.875 31.699219 L 138.355469 32.660156 L 138.355469 33.859375 M 130.433594 32.179688 L 130.914062 32.660156 L 132.113281 32.660156 L 134.992188 31.699219 L 136.671875 31.699219 L 137.875 32.179688 L 138.355469 32.660156 M 135.472656 43.21875 L 136.671875 42.5 L 137.394531 42.019531 L 137.875 40.820312 L 137.875 39.621094 L 137.394531 38.421875 L 135.472656 37.460938 L 133.3125 36.261719 M 130.914062 40.820312 L 131.632812 40.339844 L 130.914062 39.621094 L 130.433594 40.339844 L 130.433594 40.820312 L 130.914062 42.019531 L 131.632812 42.5 L 133.3125 43.21875 L 135.472656 43.21875 L 137.394531 42.5 L 137.875 42.019531 L 138.355469 40.820312 L 138.355469 39.621094 L 137.875 38.421875 L 136.191406 37.460938 L 133.3125 36.261719 L 132.113281 35.539062 L 130.914062 34.578125 L 130.433594 32.660156 L 130.433594 30.980469 M 120.59375 30.980469 L 125.632812 30.980469 M 122.753906 42.5 L 122.753906 30.980469 M 120.59375 40.820312 L 121.792969 41.539062 L 123.472656 43.21875 L 123.472656 30.980469 M 134.515625 53.539062 L 134.515625 66.019531 M 85.3125 32.660156 L 88.191406 30.980469 L 90.59375 30.980469 L 91.074219 31.699219 L 91.554688 32.660156 L 91.554688 33.859375 M 83.632812 32.179688 L 84.113281 32.660156 L 85.3125 32.660156 L 88.191406 31.699219 L 89.871094 31.699219 L 91.074219 32.179688 L 91.554688 32.660156 M 88.671875 43.21875 L 89.871094 42.5 L 90.59375 42.019531 L 91.074219 40.820312 L 91.074219 39.621094 L 90.59375 38.421875 L 88.671875 37.460938 L 86.515625 36.261719 M 84.113281 40.820312 L 84.832031 40.339844 L 84.113281 39.621094 L 83.632812 40.339844 L 83.632812 40.820312 L 84.113281 42.019531 L 84.832031 42.5 L 86.515625 43.21875 L 88.671875 43.21875 L 90.59375 42.5 L 91.074219 42.019531 L 91.554688 40.820312 L 91.554688 39.621094 L 91.074219 38.421875 L 89.394531 37.460938 L 86.515625 36.261719 L 85.3125 35.539062 L 84.113281 34.578125 L 83.632812 32.660156 L 83.632812 30.980469 M 73.792969 32.660156 L 76.671875 30.980469 L 79.074219 30.980469 L 79.554688 31.699219 L 80.035156 32.660156 L 80.035156 33.859375 M 72.113281 32.179688 L 72.59375 32.660156 L 73.792969 32.660156 L 76.671875 31.699219 L 78.355469 31.699219 L 79.554688 32.179688 L 80.035156 32.660156 M 77.152344 43.21875 L 78.355469 42.5 L 79.074219 42.019531 L 79.554688 40.820312 L 79.554688 39.621094 L 79.074219 38.421875 L 77.152344 37.460938 L 74.992188 36.261719 M 72.59375 40.820312 L 73.074219 40.339844 L 72.59375 39.621094 L 72.113281 40.339844 L 72.113281 40.820312 L 72.59375 42.019531 L 73.074219 42.5 L 74.992188 43.21875 L 77.152344 43.21875 L 79.074219 42.5 L 79.554688 42.019531 L 80.035156 40.820312 L 80.035156 39.621094 L 79.554688 38.421875 L 77.871094 37.460938 L 74.992188 36.261719 L 73.792969 35.539062 L 72.59375 34.578125 L 72.113281 32.660156 L 72.113281 30.980469 M 62.273438 30.980469 L 67.3125 30.980469 M 64.433594 42.5 L 64.433594 30.980469 M 62.273438 40.820312 L 63.472656 41.539062 L 65.152344 43.21875 L 65.152344 30.980469 M 75.953125 53.539062 L 75.953125 66.019531 M 75.953125 53.539062 L 426.113281 53.539062 M 75.953125 53.539062 L 426.113281 53.539062 L 426.113281 333.621094 L 75.953125 333.621094 L 75.953125 53.539062 L 426.113281 53.539062 " transform="matrix(1,0,0,-1,0,341)"/>
</g>
<path style="fill:none;stroke-width:1;stroke-linecap:butt;stroke-linejoin:round;stroke:rgb(0%,0%,50.19989%);stroke-opacity:1;stroke-miterlimit:10;" d="M 75.953125 78.019531 L 134.515625 91.21875 L 192.832031 104.421875 L 367.792969 143.300781 L 426.113281 156.019531 " transform="matrix(1,0,0,-1,0,341)"/>
<path style="fill:none;stroke-width:1;stroke-linecap:butt;stroke-linejoin:round;stroke:rgb(0%,0%,100%);stroke-opacity:1;stroke-miterlimit:10;" d="M 75.953125 131.300781 L 134.515625 143.300781 L 192.832031 155.539062 L 251.152344 167.300781 L 309.472656 179.300781 L 367.792969 190.820312 L 426.113281 202.578125 " transform="matrix(1,0,0,-1,0,341)"/>
<path style="fill:none;stroke-width:1;stroke-linecap:butt;stroke-linejoin:round;stroke:rgb(0%,50.19989%,0%);stroke-opacity:1;stroke-miterlimit:10;" d="M 75.953125 185.058594 L 134.515625 196.101562 L 192.832031 207.140625 L 251.152344 217.941406 L 309.472656 228.5 L 367.792969 239.300781 L 426.113281 249.859375 " transform="matrix(1,0,0,-1,0,341)"/>
<path style="fill:none;stroke-width:1;stroke-linecap:butt;stroke-linejoin:round;stroke:rgb(100%,50.19989%,0%);stroke-opacity:1;stroke-miterlimit:10;" d="M 75.953125 235.941406 L 134.515625 245.78125 L 367.792969 285.140625 L 426.113281 294.738281 " transform="matrix(1,0,0,-1,0,341)"/>
<path style="fill:none;stroke-width:1;stroke-linecap:butt;stroke-linejoin:round;stroke:rgb(100%,0%,0%);stroke-opacity:1;stroke-miterlimit:10;" d="M 75.953125 243.859375 L 134.515625 253.460938 L 192.832031 263.300781 L 426.113281 301.699219 M 101.246094 277.242188 L 102.324219 277.890625 L 103.835938 279.402344 L 103.835938 268.386719 M 103.40625 278.753906 L 103.40625 268.386719 M 101.246094 268.386719 L 105.996094 268.386719 M 119.652344 277.890625 L 120.085938 276.164062 L 120.085938 279.402344 L 119.652344 277.890625 L 118.574219 278.753906 L 117.0625 279.402344 L 115.980469 279.402344 L 114.46875 278.753906 L 113.390625 277.890625 L 112.957031 276.8125 L 112.308594 275.082031 L 112.308594 272.488281 L 112.957031 270.980469 L 113.390625 269.898438 L 114.46875 269.035156 L 115.980469 268.386719 L 117.0625 268.386719 L 118.574219 269.035156 L 119.652344 269.898438 M 115.980469 279.402344 L 114.902344 278.753906 L 114.039062 277.890625 L 113.390625 276.8125 L 112.957031 275.082031 L 112.957031 272.488281 L 113.390625 270.980469 L 114.039062 269.898438 L 114.902344 269.035156 L 115.980469 268.386719 M 119.652344 272.488281 L 119.652344 268.386719 M 120.085938 272.488281 L 120.085938 268.386719 M 118.140625 272.488281 L 121.8125 272.488281 M 124.835938 275.730469 L 128.078125 268.386719 M 125.484375 275.730469 L 128.078125 269.46875 M 131.101562 275.730469 L 128.078125 268.386719 L 126.996094 266.441406 L 125.917969 265.363281 L 124.835938 264.714844 L 124.40625 264.714844 L 123.757812 265.363281 L 124.40625 265.796875 L 124.835938 265.363281 M 123.757812 275.730469 L 126.996094 275.730469 M 128.941406 275.730469 L 132.179688 275.730469 M 135.203125 275.730469 L 135.203125 268.386719 M 135.851562 275.730469 L 135.851562 268.386719 M 135.851562 272.488281 L 136.285156 274.21875 L 137.363281 275.082031 L 138.445312 275.730469 L 139.957031 275.730469 L 140.390625 275.082031 L 140.390625 274.652344 L 139.957031 274.21875 L 139.523438 274.652344 L 139.957031 275.082031 M 133.691406 275.730469 L 135.851562 275.730469 M 133.691406 268.386719 L 137.363281 268.386719 M 142.765625 276.164062 L 148.378906 276.164062 M 151.40625 278.753906 L 152.054688 278.972656 L 152.917969 280.050781 L 152.917969 273.355469 M 152.699219 279.617188 L 152.699219 273.355469 M 151.40625 273.355469 L 154.214844 273.355469 M 167.007812 277.890625 L 167.4375 276.164062 L 167.4375 279.402344 L 167.007812 277.890625 L 165.925781 278.753906 L 164.410156 279.402344 L 163.335938 279.402344 L 161.820312 278.753906 L 160.742188 277.890625 L 160.3125 276.8125 L 159.660156 275.082031 L 159.660156 272.488281 L 160.3125 270.980469 L 160.742188 269.898438 L 161.820312 269.035156 L 163.335938 268.386719 L 164.410156 268.386719 L 165.925781 269.035156 L 167.007812 269.898438 M 163.335938 279.402344 L 162.253906 278.753906 L 161.175781 277.890625 L 160.742188 276.8125 L 160.3125 275.082031 L 160.3125 272.488281 L 160.742188 270.980469 L 161.175781 269.898438 L 162.253906 269.035156 L 163.335938 268.386719 M 167.007812 272.488281 L 167.007812 268.386719 M 167.4375 272.488281 L 167.4375 268.386719 M 165.492188 272.488281 L 169.164062 272.488281 M 172.621094 275.730469 L 172.621094 264.714844 " transform="matrix(1,0,0,-1,0,341)"/>
<path style="fill:none;stroke-width:1;stroke-linecap:butt;stroke-linejoin:round;stroke:rgb(100%,0%,0%);stroke-opacity:1;stroke-miterlimit:10;" d="M 173.269531 275.730469 L 173.269531 264.714844 M 173.269531 274.21875 L 174.351562 275.082031 L 175.214844 275.730469 L 176.292969 275.730469 L 178.019531 275.082031 L 178.886719 274.21875 L 179.535156 272.488281 L 179.535156 271.625 L 178.886719 269.898438 L 178.019531 269.035156 L 176.292969 268.386719 L 175.214844 268.386719 L 174.351562 269.035156 L 173.269531 269.898438 M 176.292969 275.730469 L 177.371094 275.082031 L 178.453125 274.21875 L 178.886719 272.488281 L 178.886719 271.625 L 178.453125 269.898438 L 177.371094 269.035156 L 176.292969 268.386719 M 171.109375 275.730469 L 173.269531 275.730469 M 171.109375 264.714844 L 174.78125 264.714844 M 188.824219 274.21875 L 188.390625 273.570312 L 188.824219 273.140625 L 189.253906 273.570312 L 189.253906 274.21875 L 188.390625 275.082031 L 187.3125 275.730469 L 185.796875 275.730469 L 184.070312 275.082031 L 183.207031 274.21875 L 182.558594 272.488281 L 182.558594 271.625 L 183.207031 269.898438 L 184.070312 269.035156 L 185.796875 268.386719 L 186.664062 268.386719 L 188.390625 269.035156 L 189.253906 269.898438 M 185.796875 275.730469 L 184.71875 275.082031 L 183.640625 274.21875 L 183.207031 272.488281 L 183.207031 271.625 L 183.640625 269.898438 L 184.71875 269.035156 L 185.796875 268.386719 M 192.0625 276.164062 L 197.679688 276.164062 M 200.269531 278.753906 L 200.484375 278.320312 L 200.269531 278.109375 L 199.839844 278.320312 L 199.839844 278.753906 L 200.269531 279.402344 L 200.484375 279.617188 L 201.566406 280.050781 L 202.644531 280.050781 L 203.726562 279.617188 L 203.941406 278.972656 L 203.941406 278.109375 L 203.726562 277.460938 L 202.644531 277.242188 L 201.78125 277.242188 M 202.644531 280.050781 L 203.292969 279.617188 L 203.726562 278.972656 L 203.726562 278.109375 L 203.292969 277.460938 L 202.644531 277.242188 L 203.292969 276.8125 L 203.941406 276.164062 L 204.375 275.515625 L 204.375 274.648438 L 203.941406 274.003906 L 203.726562 273.785156 L 202.644531 273.355469 L 201.566406 273.355469 L 200.484375 273.785156 L 200.269531 274.003906 L 199.839844 274.648438 L 199.839844 274.867188 M 199.839844 274.867188 L 200.269531 275.296875 L 200.484375 274.867188 L 200.269531 274.648438 M 203.726562 276.59375 L 203.941406 275.515625 L 203.941406 274.648438 L 203.726562 274.003906 L 203.292969 273.785156 L 202.644531 273.355469 " transform="matrix(1,0,0,-1,0,341)"/>
<path style="fill:none;stroke-width:1;stroke-linecap:butt;stroke-linejoin:round;stroke:rgb(100%,50.19989%,0%);stroke-opacity:1;stroke-miterlimit:10;" d="M 101.292969 232.503906 L 102.371094 233.148438 L 103.886719 234.660156 L 103.886719 223.644531 M 103.453125 234.011719 L 103.453125 223.644531 M 101.292969 223.644531 L 106.042969 223.644531 M 113.171875 234.660156 L 111.660156 234.011719 L 110.582031 232.503906 L 110.148438 229.910156 L 110.148438 228.398438 L 110.582031 225.804688 L 111.660156 224.292969 L 113.171875 223.644531 L 114.253906 223.644531 L 115.765625 224.292969 L 116.84375 225.804688 L 117.492188 228.398438 L 117.492188 229.910156 L 116.84375 232.503906 L 115.765625 234.011719 L 114.253906 234.660156 L 113.171875 234.660156 L 112.09375 234.011719 L 111.660156 233.582031 L 111.226562 232.503906 L 110.582031 229.910156 L 110.582031 228.398438 L 111.226562 225.804688 L 111.660156 224.726562 L 112.09375 224.292969 L 113.171875 223.644531 M 114.253906 223.644531 L 115.332031 224.292969 L 115.765625 224.726562 L 116.414062 225.804688 L 116.84375 228.398438 L 116.84375 229.910156 L 116.414062 232.503906 L 115.765625 233.582031 L 115.332031 234.011719 L 114.253906 234.660156 M 120.300781 231.421875 L 125.917969 231.421875 M 128.941406 234.011719 L 129.589844 234.230469 L 130.453125 235.308594 L 130.453125 228.613281 M 130.238281 234.878906 L 130.238281 228.613281 M 128.941406 228.613281 L 131.75 228.613281 M 136.070312 235.308594 L 135.203125 234.878906 L 134.558594 234.011719 L 134.125 232.503906 L 134.125 231.421875 L 134.558594 229.910156 L 135.203125 229.046875 L 136.070312 228.613281 L 136.714844 228.613281 L 137.582031 229.046875 L 138.226562 229.910156 L 138.660156 231.421875 L 138.660156 232.503906 L 138.226562 234.011719 L 137.582031 234.878906 L 136.714844 235.308594 L 136.070312 235.308594 L 135.421875 234.878906 L 135.203125 234.660156 L 134.773438 234.011719 L 134.558594 232.503906 L 134.558594 231.421875 L 134.773438 229.910156 L 135.203125 229.261719 L 135.421875 229.046875 L 136.070312 228.613281 M 136.714844 228.613281 L 137.363281 229.046875 L 137.582031 229.261719 L 138.011719 229.910156 L 138.226562 231.421875 L 138.226562 232.503906 L 138.011719 234.011719 L 137.582031 234.660156 L 137.363281 234.878906 L 136.714844 235.308594 " transform="matrix(1,0,0,-1,0,341)"/>
<path style="fill:none;stroke-width:1;stroke-linecap:butt;stroke-linejoin:round;stroke:rgb(0%,50.19989%,0%);stroke-opacity:1;stroke-miterlimit:10;" d="M 101.292969 182.894531 L 102.371094 183.542969 L 104.101562 185.054688 L 104.101562 174.035156 M 103.453125 184.40625 L 103.453125 174.035156 M 101.292969 174.035156 L 106.042969 174.035156 M 113.386719 185.054688 L 111.875 184.40625 L 110.796875 182.894531 L 110.148438 180.300781 L 110.148438 178.789062 L 110.796875 176.195312 L 111.875 174.683594 L 113.386719 174.035156 L 114.46875 174.035156 L 115.980469 174.683594 L 117.058594 176.195312 L 117.492188 178.789062 L 117.492188 180.300781 L 117.058594 182.894531 L 115.980469 184.40625 L 114.46875 185.054688 L 113.386719 185.054688 L 112.308594 184.40625 L 111.875 183.972656 L 111.230469 182.894531 L 110.796875 180.300781 L 110.796875 178.789062 L 111.230469 176.195312 L 111.875 175.117188 L 112.308594 174.683594 L 113.386719 174.035156 M 114.46875 174.035156 L 115.332031 174.683594 L 115.980469 175.117188 L 116.414062 176.195312 L 117.058594 178.789062 L 117.058594 180.300781 L 116.414062 182.894531 L 115.980469 183.972656 L 115.332031 184.40625 L 114.46875 185.054688 M 120.300781 181.8125 L 125.914062 181.8125 M 128.941406 184.40625 L 129.589844 184.621094 L 130.667969 185.699219 L 130.667969 179.003906 M 130.238281 185.269531 L 130.238281 179.003906 M 128.941406 179.003906 L 131.75 179.003906 M 136.285156 185.699219 L 135.203125 185.269531 L 134.554688 184.40625 L 134.339844 182.894531 L 134.339844 181.8125 L 134.554688 180.300781 L 135.203125 179.4375 L 136.285156 179.003906 L 136.933594 179.003906 L 137.796875 179.4375 L 138.445312 180.300781 L 138.660156 181.8125 L 138.660156 182.894531 L 138.445312 184.40625 L 137.796875 185.269531 L 136.933594 185.699219 L 136.285156 185.699219 L 135.636719 185.269531 L 135.203125 185.054688 L 134.988281 184.40625 L 134.554688 182.894531 L 134.554688 181.8125 L 134.988281 180.300781 L 135.203125 179.652344 L 135.636719 179.4375 L 136.285156 179.003906 M 136.933594 179.003906 L 137.363281 179.4375 L 137.796875 179.652344 L 138.011719 180.300781 L 138.445312 181.8125 L 138.445312 182.894531 L 138.011719 184.40625 L 137.796875 185.054688 L 137.363281 185.269531 L 136.933594 185.699219 M 142.546875 185.699219 L 141.46875 185.269531 L 140.820312 184.40625 L 140.605469 182.894531 L 140.605469 181.8125 L 140.820312 180.300781 L 141.46875 179.4375 L 142.546875 179.003906 L 142.980469 179.003906 L 144.058594 179.4375 L 144.707031 180.300781 L 144.925781 181.8125 L 144.925781 182.894531 L 144.707031 184.40625 L 144.058594 185.269531 L 142.980469 185.699219 L 142.546875 185.699219 L 141.902344 185.269531 L 141.46875 185.054688 L 141.253906 184.40625 L 140.820312 182.894531 L 140.820312 181.8125 L 141.253906 180.300781 L 141.46875 179.652344 L 141.902344 179.4375 L 142.546875 179.003906 M 142.980469 179.003906 L 143.628906 179.4375 L 144.058594 179.652344 L 144.277344 180.300781 L 144.707031 181.8125 L 144.707031 182.894531 L 144.277344 184.40625 L 144.058594 185.054688 L 143.628906 185.269531 L 142.980469 185.699219 " transform="matrix(1,0,0,-1,0,341)"/>
<path style="fill:none;stroke-width:1;stroke-linecap:butt;stroke-linejoin:round;stroke:rgb(0%,0%,100%);stroke-opacity:1;stroke-miterlimit:10;" d="M 101.292969 129.214844 L 102.371094 129.863281 L 103.882812 131.375 L 103.882812 120.359375 M 103.453125 130.726562 L 103.453125 120.359375 M 101.292969 120.359375 L 106.042969 120.359375 M 113.171875 131.375 L 111.660156 130.726562 L 110.578125 129.214844 L 110.148438 126.621094 L 110.148438 125.109375 L 110.578125 122.519531 L 111.660156 121.007812 L 113.171875 120.359375 L 114.25 120.359375 L 115.761719 121.007812 L 116.84375 122.519531 L 117.492188 125.109375 L 117.492188 126.621094 L 116.84375 129.214844 L 115.761719 130.726562 L 114.25 131.375 L 113.171875 131.375 L 112.089844 130.726562 L 111.660156 130.292969 L 111.226562 129.214844 L 110.578125 126.621094 L 110.578125 125.109375 L 111.226562 122.519531 L 111.660156 121.4375 L 112.089844 121.007812 L 113.171875 120.359375 M 114.25 120.359375 L 115.332031 121.007812 L 115.761719 121.4375 L 116.414062 122.519531 L 116.84375 125.109375 L 116.84375 126.621094 L 116.414062 129.214844 L 115.761719 130.292969 L 115.332031 130.726562 L 114.25 131.375 M 120.300781 128.132812 L 125.699219 128.132812 M 128.292969 130.726562 L 128.507812 130.292969 L 128.292969 130.078125 L 128.074219 130.292969 L 128.074219 130.726562 L 128.292969 131.375 L 128.507812 131.589844 L 129.585938 132.023438 L 130.882812 132.023438 L 131.746094 131.589844 L 131.964844 130.941406 L 131.964844 130.078125 L 131.746094 129.429688 L 130.882812 129.214844 L 129.804688 129.214844 M 130.882812 132.023438 L 131.316406 131.589844 L 131.746094 130.941406 L 131.746094 130.078125 L 131.316406 129.429688 L 130.882812 129.214844 L 131.964844 128.132812 L 132.394531 127.484375 L 132.394531 126.621094 L 131.964844 125.972656 L 131.746094 125.757812 L 130.882812 125.324219 L 129.585938 125.324219 L 128.507812 125.757812 L 128.292969 125.972656 L 128.074219 126.621094 L 128.074219 127.054688 L 128.292969 127.269531 L 128.507812 127.054688 L 128.292969 126.621094 M 131.746094 128.566406 L 131.964844 127.484375 L 131.964844 126.621094 L 131.746094 125.972656 L 131.316406 125.757812 L 130.882812 125.324219 M 136.066406 132.023438 L 135.203125 131.589844 L 134.554688 130.726562 L 134.125 129.214844 L 134.125 128.132812 L 134.554688 126.621094 L 135.203125 125.757812 L 136.066406 125.324219 L 136.714844 125.324219 L 137.578125 125.757812 L 138.226562 126.621094 L 138.660156 128.132812 L 138.660156 129.214844 L 138.226562 130.726562 L 137.578125 131.589844 L 136.714844 132.023438 L 136.066406 132.023438 L 135.417969 131.589844 L 135.203125 131.375 L 134.773438 130.726562 L 134.554688 129.214844 L 134.554688 128.132812 M 134.554688 128.132812 L 134.773438 126.621094 L 135.203125 125.972656 L 135.417969 125.757812 L 136.066406 125.324219 M 136.714844 125.324219 L 137.363281 125.757812 L 137.578125 125.972656 L 138.011719 126.621094 L 138.226562 128.132812 L 138.226562 129.214844 L 138.011719 130.726562 L 137.578125 131.375 L 137.363281 131.589844 L 136.714844 132.023438 M 142.332031 132.023438 L 141.46875 131.589844 L 140.820312 130.726562 L 140.386719 129.214844 L 140.386719 128.132812 L 140.820312 126.621094 L 141.46875 125.757812 L 142.332031 125.324219 L 142.980469 125.324219 L 143.84375 125.757812 L 144.492188 126.621094 L 144.925781 128.132812 L 144.925781 129.214844 L 144.492188 130.726562 L 143.84375 131.589844 L 142.980469 132.023438 L 142.332031 132.023438 L 141.683594 131.589844 L 141.46875 131.375 L 141.035156 130.726562 L 140.820312 129.214844 L 140.820312 128.132812 L 141.035156 126.621094 L 141.46875 125.972656 L 141.683594 125.757812 L 142.332031 125.324219 " transform="matrix(1,0,0,-1,0,341)"/>
<path style="fill:none;stroke-width:1;stroke-linecap:butt;stroke-linejoin:round;stroke:rgb(0%,0%,100%);stroke-opacity:1;stroke-miterlimit:10;" d="M 142.980469 125.324219 L 143.628906 125.757812 L 143.84375 125.972656 L 144.273438 126.621094 L 144.492188 128.132812 L 144.492188 129.214844 L 144.273438 130.726562 L 143.84375 131.375 L 143.628906 131.589844 L 142.980469 132.023438 " transform="matrix(1,0,0,-1,0,341)"/>
<path style="fill:none;stroke-width:1;stroke-linecap:butt;stroke-linejoin:round;stroke:rgb(0%,0%,50.19989%);stroke-opacity:1;stroke-miterlimit:10;" d="M 101.292969 77.695312 L 102.375 78.34375 L 103.886719 79.855469 L 103.886719 68.839844 M 103.453125 79.207031 L 103.453125 68.839844 M 101.292969 68.839844 L 106.046875 68.839844 M 113.390625 79.855469 L 111.878906 79.207031 L 110.796875 77.695312 L 110.148438 75.105469 L 110.148438 73.589844 L 110.796875 71 L 111.878906 69.488281 L 113.390625 68.839844 L 114.46875 68.839844 L 115.980469 69.488281 L 117.0625 71 L 117.496094 73.589844 L 117.496094 75.105469 L 117.0625 77.695312 L 115.980469 79.207031 L 114.46875 79.855469 L 113.390625 79.855469 L 112.308594 79.207031 L 111.878906 78.777344 L 111.230469 77.695312 L 110.796875 75.105469 L 110.796875 73.589844 L 111.230469 71 L 111.878906 69.917969 L 112.308594 69.488281 L 113.390625 68.839844 M 114.46875 68.839844 L 115.332031 69.488281 L 115.980469 69.917969 L 116.414062 71 L 117.0625 73.589844 L 117.0625 75.105469 L 116.414062 77.695312 L 115.980469 78.777344 L 115.332031 79.207031 L 114.46875 79.855469 M 120.300781 76.617188 L 125.917969 76.617188 M 128.941406 79.207031 L 129.589844 79.421875 L 130.667969 80.503906 L 130.667969 73.808594 M 130.238281 80.070312 L 130.238281 73.808594 M 128.941406 73.808594 L 131.75 73.808594 M 136.285156 80.503906 L 135.207031 80.070312 L 134.558594 79.207031 L 134.339844 77.695312 L 134.339844 76.617188 L 134.558594 75.105469 L 135.207031 74.238281 L 136.285156 73.808594 L 136.71875 73.808594 L 137.796875 74.238281 L 138.445312 75.105469 L 138.660156 76.617188 L 138.660156 77.695312 L 138.445312 79.207031 L 137.796875 80.070312 L 136.71875 80.503906 L 136.285156 80.503906 L 135.636719 80.070312 L 135.207031 79.855469 L 134.988281 79.207031 L 134.558594 77.695312 L 134.558594 76.617188 L 134.988281 75.105469 L 135.207031 74.457031 L 135.636719 74.238281 L 136.285156 73.808594 M 136.71875 73.808594 L 137.363281 74.238281 L 137.796875 74.457031 L 138.011719 75.105469 L 138.445312 76.617188 L 138.445312 77.695312 L 138.011719 79.207031 L 137.796875 79.855469 L 137.363281 80.070312 L 136.71875 80.503906 M 142.332031 80.503906 L 141.46875 80.070312 L 140.820312 79.207031 L 140.605469 77.695312 L 140.605469 76.617188 L 140.820312 75.105469 L 141.46875 74.238281 L 142.332031 73.808594 L 142.980469 73.808594 L 144.0625 74.238281 L 144.707031 75.105469 L 144.925781 76.617188 L 144.925781 77.695312 L 144.707031 79.207031 L 144.0625 80.070312 L 142.980469 80.503906 L 142.332031 80.503906 L 141.902344 80.070312 L 141.46875 79.855469 L 141.253906 79.207031 L 140.820312 77.695312 L 140.820312 76.617188 L 141.253906 75.105469 L 141.46875 74.457031 L 141.902344 74.238281 L 142.332031 73.808594 M 142.980469 73.808594 L 143.628906 74.238281 L 144.0625 74.457031 L 144.277344 75.105469 L 144.707031 76.617188 L 144.707031 77.695312 L 144.277344 79.207031 L 144.0625 79.855469 L 143.628906 80.070312 L 142.980469 80.503906 M 148.597656 80.503906 L 147.734375 80.070312 L 147.085938 79.207031 L 146.867188 77.695312 L 146.867188 76.617188 L 147.085938 75.105469 L 147.734375 74.238281 L 148.597656 73.808594 L 149.246094 73.808594 L 150.324219 74.238281 L 150.757812 75.105469 L 151.191406 76.617188 L 151.191406 77.695312 L 150.757812 79.207031 L 150.324219 80.070312 L 149.246094 80.503906 L 148.597656 80.503906 L 147.949219 80.070312 L 147.734375 79.855469 L 147.519531 79.207031 L 147.085938 77.695312 L 147.085938 76.617188 L 147.519531 75.105469 L 147.734375 74.457031 L 147.949219 74.238281 L 148.597656 73.808594 " transform="matrix(1,0,0,-1,0,341)"/>
<path style="fill:none;stroke-width:1;stroke-linecap:butt;stroke-linejoin:round;stroke:rgb(0%,0%,50.19989%);stroke-opacity:1;stroke-miterlimit:10;" d="M 149.246094 73.808594 L 149.894531 74.238281 L 150.324219 74.457031 L 150.542969 75.105469 L 150.757812 76.617188 L 150.757812 77.695312 L 150.542969 79.207031 L 150.324219 79.855469 L 149.894531 80.070312 L 149.246094 80.503906 " transform="matrix(1,0,0,-1,0,341)"/>
<path style="fill:none;stroke-width:1;stroke-linecap:butt;stroke-linejoin:round;stroke:rgb(0%,0%,0%);stroke-opacity:1;stroke-miterlimit:10;" d="M 313.082031 82.851562 L 313.515625 84.363281 L 313.515625 81.339844 L 313.082031 82.851562 L 312.003906 83.933594 L 310.492188 84.363281 L 308.980469 84.363281 L 307.46875 83.933594 L 306.386719 82.851562 L 306.386719 81.773438 L 306.820312 80.90625 L 307.46875 80.257812 L 308.332031 79.828125 L 311.570312 78.746094 L 312.652344 78.316406 L 313.515625 77.234375 M 306.386719 81.773438 L 307.46875 80.90625 L 308.332031 80.257812 L 311.570312 79.179688 L 312.652344 78.746094 L 313.082031 78.316406 L 313.515625 77.234375 L 313.515625 75.074219 L 312.652344 73.996094 L 310.921875 73.5625 L 309.410156 73.5625 L 307.898438 73.996094 L 306.820312 75.074219 L 306.386719 76.585938 L 306.386719 73.5625 L 306.820312 75.074219 M 317.835938 84.363281 L 317.835938 75.722656 L 318.265625 73.996094 L 319.347656 73.5625 L 320.425781 73.5625 L 321.507812 73.996094 L 321.9375 75.074219 M 318.265625 84.363281 L 318.265625 75.722656 L 318.699219 73.996094 L 319.347656 73.5625 M 316.105469 80.90625 L 320.425781 80.90625 M 325.613281 79.828125 L 325.613281 79.179688 L 324.964844 79.179688 L 324.964844 79.828125 L 325.613281 80.257812 L 326.691406 80.90625 L 328.636719 80.90625 L 329.714844 80.257812 M 329.714844 80.257812 L 330.148438 79.828125 L 330.796875 78.746094 L 330.796875 75.074219 L 331.226562 73.996094 L 331.875 73.5625 M 330.148438 79.828125 L 330.148438 75.074219 L 330.796875 73.996094 L 331.875 73.5625 L 332.308594 73.5625 M 330.148438 78.746094 L 329.714844 78.316406 L 326.691406 77.667969 L 324.964844 77.234375 L 324.53125 76.15625 L 324.53125 75.074219 L 324.964844 73.996094 L 326.691406 73.5625 L 328.203125 73.5625 L 329.285156 73.996094 L 330.148438 75.074219 M 326.691406 77.667969 L 325.613281 77.234375 L 324.964844 76.15625 L 324.964844 75.074219 L 325.613281 73.996094 L 326.691406 73.5625 M 335.980469 84.363281 L 335.980469 73.5625 M 336.410156 84.363281 L 336.410156 73.5625 M 336.410156 79.179688 L 337.492188 80.257812 L 338.570312 80.90625 L 339.652344 80.90625 L 341.164062 80.257812 L 342.242188 79.179688 L 342.675781 77.667969 L 342.675781 76.585938 L 342.242188 75.074219 L 341.164062 73.996094 L 339.652344 73.5625 L 338.570312 73.5625 L 337.492188 73.996094 L 336.410156 75.074219 M 339.652344 80.90625 L 340.730469 80.257812 L 341.59375 79.179688 L 342.242188 77.667969 L 342.242188 76.585938 L 341.59375 75.074219 L 340.730469 73.996094 L 339.652344 73.5625 M 334.46875 84.363281 L 336.410156 84.363281 M 346.777344 84.363281 L 346.777344 73.5625 M 347.425781 84.363281 L 347.425781 73.5625 M 345.265625 84.363281 L 347.425781 84.363281 M 345.265625 73.5625 L 348.9375 73.5625 M 352.179688 77.667969 L 358.226562 77.667969 L 358.226562 78.746094 L 357.796875 79.828125 L 357.363281 80.257812 L 356.28125 80.90625 L 354.769531 80.90625 L 353.042969 80.257812 L 352.179688 79.179688 L 351.53125 77.667969 L 351.53125 76.585938 L 352.179688 75.074219 L 353.042969 73.996094 L 354.769531 73.5625 L 355.632812 73.5625 L 357.363281 73.996094 L 358.226562 75.074219 " transform="matrix(1,0,0,-1,0,341)"/>
<path style="fill:none;stroke-width:1;stroke-linecap:butt;stroke-linejoin:round;stroke:rgb(0%,0%,0%);stroke-opacity:1;stroke-miterlimit:10;" d="M 357.796875 77.667969 L 357.796875 79.179688 L 357.363281 80.257812 M 354.769531 80.90625 L 353.691406 80.257812 L 352.609375 79.179688 L 352.179688 77.667969 L 352.179688 76.585938 L 352.609375 75.074219 L 353.691406 73.996094 L 354.769531 73.5625 M 370.996094 86.523438 L 369.914062 85.441406 L 368.835938 83.933594 L 367.753906 81.773438 L 367.324219 79.179688 L 367.324219 77.234375 L 367.753906 74.644531 L 368.835938 72.484375 L 369.914062 70.972656 L 370.996094 69.890625 M 369.914062 85.441406 L 368.835938 83.5 L 367.753906 79.179688 L 367.753906 77.234375 L 368.835938 72.914062 L 369.914062 70.972656 M 374.019531 84.363281 L 375.097656 84.363281 L 376.179688 83.933594 L 376.609375 83.5 L 377.042969 82.421875 L 380.28125 75.074219 L 380.714844 73.996094 L 381.363281 73.5625 M 375.097656 84.363281 L 376.179688 83.5 L 376.609375 82.421875 L 379.851562 75.074219 L 380.28125 73.996094 L 381.363281 73.5625 L 381.796875 73.5625 M 377.691406 80.90625 L 373.585938 73.5625 M 377.691406 80.90625 L 374.019531 73.5625 M 385.035156 82.851562 L 393.242188 78.316406 L 385.035156 73.5625 M 400.363281 84.363281 L 398.851562 83.933594 L 397.769531 82.417969 L 397.121094 79.828125 L 397.121094 78.316406 L 397.769531 75.722656 L 398.851562 73.996094 L 400.363281 73.5625 L 401.441406 73.5625 L 402.953125 73.996094 L 404.035156 75.722656 L 404.464844 78.316406 L 404.464844 79.828125 L 404.035156 82.417969 L 402.953125 83.933594 L 401.441406 84.363281 L 400.363281 84.363281 L 399.28125 83.933594 L 398.851562 83.5 L 398.203125 82.417969 L 397.769531 79.828125 L 397.769531 78.316406 L 398.203125 75.722656 L 398.851562 74.644531 L 399.28125 73.996094 L 400.363281 73.5625 M 401.441406 73.5625 L 402.523438 73.996094 L 402.953125 74.644531 L 403.386719 75.722656 L 404.035156 78.316406 L 404.035156 79.828125 L 403.386719 82.417969 L 402.953125 83.5 L 402.523438 83.933594 L 401.441406 84.363281 M 407.707031 86.523438 L 408.570312 85.441406 L 409.652344 83.933594 L 410.730469 81.773438 L 411.164062 79.179688 L 411.164062 77.234375 L 410.730469 74.644531 L 409.652344 72.484375 L 408.570312 70.972656 L 407.707031 69.890625 M 408.570312 85.441406 L 409.652344 83.5 L 410.296875 81.773438 L 410.730469 79.179688 L 410.730469 77.234375 L 410.296875 74.644531 L 409.652344 72.914062 L 408.570312 70.972656 " transform="matrix(1,0,0,-1,0,341)"/>
<path style="fill:none;stroke-width:1;stroke-linecap:butt;stroke-linejoin:round;stroke:rgb(100%,0%,100%);stroke-opacity:1;stroke-miterlimit:10;" d="M 134.6875 316.464844 L 134.6875 305.664062 M 135.335938 316.464844 L 135.335938 305.664062 M 131.660156 316.464844 L 131.015625 313.441406 L 131.015625 316.464844 L 138.789062 316.464844 L 138.789062 313.441406 L 138.359375 316.464844 M 133.175781 305.664062 L 136.847656 305.664062 M 144.621094 312.792969 L 143.109375 312.359375 L 142.03125 311.28125 L 141.382812 309.769531 L 141.382812 308.691406 L 142.03125 307.179688 L 143.109375 306.097656 L 144.621094 305.664062 L 145.703125 305.664062 L 147.214844 306.097656 L 148.292969 307.179688 L 148.726562 308.691406 L 148.726562 309.769531 L 148.292969 311.28125 L 147.214844 312.359375 L 145.703125 312.792969 L 144.621094 312.792969 L 143.542969 312.359375 L 142.460938 311.28125 L 142.03125 309.769531 L 142.03125 308.691406 L 142.460938 307.179688 L 143.542969 306.097656 L 144.621094 305.664062 M 145.703125 305.664062 L 146.78125 306.097656 L 147.644531 307.179688 L 148.292969 308.691406 L 148.292969 309.769531 L 147.644531 311.28125 L 146.78125 312.359375 L 145.703125 312.792969 M 154.988281 312.792969 L 153.476562 312.359375 L 152.398438 311.28125 L 151.964844 309.769531 L 151.964844 308.691406 L 152.398438 307.179688 L 153.476562 306.097656 L 154.988281 305.664062 L 156.070312 305.664062 L 157.582031 306.097656 L 158.660156 307.179688 L 159.09375 308.691406 L 159.09375 309.769531 L 158.660156 311.28125 L 157.582031 312.359375 L 156.070312 312.792969 L 154.988281 312.792969 L 153.910156 312.359375 L 152.828125 311.28125 L 152.398438 309.769531 L 152.398438 308.691406 L 152.828125 307.179688 L 153.910156 306.097656 L 154.988281 305.664062 M 156.070312 305.664062 L 157.148438 306.097656 L 158.011719 307.179688 L 158.660156 308.691406 L 158.660156 309.769531 L 158.011719 311.28125 L 157.148438 312.359375 L 156.070312 312.792969 M 168.921875 316.464844 L 168.921875 305.664062 M 169.355469 316.464844 L 169.355469 305.664062 M 167.410156 316.464844 L 169.355469 316.464844 M 167.410156 305.664062 L 171.082031 305.664062 M 174.753906 311.714844 L 174.753906 311.28125 L 174.105469 311.28125 L 174.105469 311.714844 L 174.753906 312.359375 L 175.617188 312.792969 L 177.777344 312.792969 L 178.855469 312.359375 L 179.289062 311.714844 L 179.9375 310.851562 L 179.9375 307.179688 L 180.371094 306.097656 L 180.800781 305.664062 M 179.289062 311.714844 L 179.289062 307.179688 L 179.9375 306.097656 L 180.800781 305.664062 L 181.449219 305.664062 M 179.289062 310.851562 L 178.855469 310.199219 L 175.617188 309.769531 L 174.105469 309.121094 L 173.671875 308.257812 L 173.671875 307.179688 L 174.105469 306.097656 L 175.617188 305.664062 L 177.34375 305.664062 L 178.210938 306.097656 L 179.289062 307.179688 M 175.617188 309.769531 L 174.753906 309.121094 L 174.105469 308.257812 L 174.105469 307.179688 L 174.753906 306.097656 L 175.617188 305.664062 M 185.121094 312.792969 L 185.121094 305.664062 M 185.554688 312.792969 L 185.554688 305.664062 M 185.554688 309.769531 L 185.984375 311.28125 L 187.066406 312.359375 L 188.144531 312.792969 L 189.65625 312.792969 L 190.304688 312.359375 L 190.304688 311.714844 L 189.65625 311.28125 L 189.226562 311.714844 L 189.65625 312.359375 " transform="matrix(1,0,0,-1,0,341)"/>
<path style="fill:none;stroke-width:1;stroke-linecap:butt;stroke-linejoin:round;stroke:rgb(100%,0%,100%);stroke-opacity:1;stroke-miterlimit:10;" d="M 183.394531 312.792969 L 185.554688 312.792969 M 183.394531 305.664062 L 187.066406 305.664062 M 195.488281 312.792969 L 194.410156 312.359375 L 193.976562 311.714844 L 193.328125 310.851562 L 193.328125 309.769531 L 193.976562 308.691406 L 194.410156 308.257812 L 195.488281 307.609375 L 196.570312 307.609375 L 197.433594 308.257812 L 198.082031 308.691406 L 198.511719 309.769531 L 198.511719 310.851562 L 198.082031 311.714844 L 197.433594 312.359375 L 196.570312 312.792969 L 195.488281 312.792969 M 194.410156 312.359375 L 193.976562 311.28125 L 193.976562 309.121094 L 194.410156 308.257812 M 197.433594 308.257812 L 198.082031 309.121094 L 198.082031 311.28125 L 197.433594 312.359375 M 198.082031 311.714844 L 198.511719 312.359375 L 199.59375 312.792969 L 199.59375 312.359375 L 198.511719 312.359375 M 193.976562 308.691406 L 193.328125 308.257812 L 192.898438 307.179688 L 192.898438 306.527344 L 193.328125 305.664062 L 194.839844 305.015625 L 197.433594 305.015625 L 199.160156 304.585938 L 199.59375 303.9375 M 192.898438 306.527344 L 193.328125 306.097656 L 194.839844 305.664062 L 197.433594 305.664062 L 199.160156 305.015625 L 199.59375 303.9375 L 199.59375 303.503906 L 199.160156 302.425781 L 197.433594 301.992188 L 194.410156 301.992188 L 192.898438 302.425781 L 192.25 303.503906 L 192.25 303.9375 L 192.898438 305.015625 L 194.410156 305.664062 M 203.265625 309.769531 L 209.527344 309.769531 L 209.527344 310.847656 L 208.882812 311.714844 L 208.449219 312.359375 L 207.371094 312.792969 L 205.855469 312.792969 L 204.34375 312.359375 L 203.265625 311.28125 L 202.617188 309.769531 L 202.617188 308.691406 L 203.265625 307.179688 L 204.34375 306.097656 L 205.855469 305.664062 L 206.9375 305.664062 L 208.449219 306.097656 L 209.527344 307.179688 M 208.882812 309.769531 L 208.882812 311.28125 L 208.449219 312.359375 M 205.855469 312.792969 L 204.777344 312.359375 L 203.699219 311.28125 L 203.265625 309.769531 L 203.265625 308.691406 L 203.699219 307.179688 L 204.777344 306.097656 L 205.855469 305.664062 M 224.539062 316.464844 L 224.539062 305.664062 M 224.972656 316.464844 L 224.972656 305.664062 M 224.539062 311.28125 L 223.460938 312.359375 L 222.382812 312.792969 L 221.300781 312.792969 L 219.789062 312.359375 L 218.710938 311.28125 L 218.277344 309.769531 L 218.277344 308.691406 L 218.710938 307.179688 L 219.789062 306.097656 L 221.300781 305.664062 L 222.382812 305.664062 L 223.460938 306.097656 L 224.539062 307.179688 M 221.300781 312.792969 L 220.222656 312.359375 L 219.355469 311.28125 L 218.710938 309.769531 L 218.710938 308.691406 L 219.355469 307.179688 L 220.222656 306.097656 L 221.300781 305.664062 M 222.8125 316.464844 L 224.972656 316.464844 M 224.539062 305.664062 L 226.484375 305.664062 M 229.726562 309.769531 L 235.988281 309.769531 L 235.988281 310.847656 L 235.339844 311.714844 L 234.910156 312.359375 L 233.828125 312.792969 L 232.316406 312.792969 L 230.804688 312.359375 L 229.726562 311.28125 L 229.078125 309.769531 L 229.078125 308.691406 L 229.726562 307.179688 L 230.804688 306.097656 L 232.316406 305.664062 L 233.398438 305.664062 L 234.910156 306.097656 L 235.988281 307.179688 " transform="matrix(1,0,0,-1,0,341)"/>
<path style="fill:none;stroke-width:1;stroke-linecap:butt;stroke-linejoin:round;stroke:rgb(100%,0%,100%);stroke-opacity:1;stroke-miterlimit:10;" d="M 235.339844 309.769531 L 235.339844 311.28125 L 234.910156 312.359375 M 232.316406 312.792969 L 231.238281 312.359375 L 230.15625 311.28125 L 229.726562 309.769531 L 229.726562 308.691406 L 230.15625 307.179688 L 231.238281 306.097656 L 232.316406 305.664062 M 245.277344 311.28125 L 244.628906 310.847656 L 245.277344 310.199219 L 245.710938 310.847656 L 245.710938 311.28125 L 244.628906 312.359375 L 243.765625 312.792969 L 242.039062 312.792969 L 240.527344 312.359375 L 239.445312 311.28125 L 239.011719 309.769531 L 239.011719 308.691406 L 239.445312 307.179688 L 240.527344 306.097656 L 242.039062 305.664062 L 243.117188 305.664062 L 244.628906 306.097656 L 245.710938 307.179688 M 242.039062 312.792969 L 241.171875 312.359375 L 240.09375 311.28125 L 239.445312 309.769531 L 239.445312 308.691406 L 240.09375 307.179688 L 241.171875 306.097656 L 242.039062 305.664062 M 250.027344 311.714844 L 250.027344 311.28125 L 249.382812 311.28125 L 249.382812 311.714844 L 250.027344 312.359375 L 250.894531 312.792969 L 253.054688 312.792969 L 254.132812 312.359375 L 254.566406 311.714844 L 255.214844 310.847656 L 255.214844 307.179688 L 255.644531 306.097656 L 256.078125 305.664062 M 254.566406 311.714844 L 254.566406 307.179688 L 255.214844 306.097656 L 256.078125 305.664062 L 256.726562 305.664062 M 254.566406 310.847656 L 254.132812 310.199219 L 250.894531 309.769531 L 249.382812 309.121094 L 248.949219 308.257812 L 248.949219 307.179688 L 249.382812 306.097656 L 250.894531 305.664062 L 252.621094 305.664062 L 253.484375 306.097656 L 254.566406 307.179688 M 250.894531 309.769531 L 250.027344 309.121094 L 249.382812 308.257812 L 249.382812 307.179688 L 250.027344 306.097656 L 250.894531 305.664062 M 259.75 312.792969 L 262.988281 305.664062 M 260.398438 312.792969 L 262.988281 306.527344 M 266.011719 312.792969 L 262.988281 305.664062 L 261.910156 303.503906 L 260.828125 302.425781 L 259.75 301.992188 L 259.316406 301.992188 L 258.667969 302.425781 L 259.316406 303.074219 L 259.75 302.425781 M 258.667969 312.792969 L 261.910156 312.792969 M 264.070312 312.792969 L 267.09375 312.792969 M 275.839844 312.792969 L 275.839844 305.664062 M 276.273438 312.792969 L 276.273438 305.664062 M 276.273438 309.769531 L 276.921875 311.28125 L 278 312.359375 L 278.867188 312.792969 L 280.59375 312.792969 L 281.023438 312.359375 L 281.023438 311.714844 L 280.59375 311.28125 L 279.945312 311.714844 L 280.59375 312.359375 M 274.328125 312.792969 L 276.273438 312.792969 M 274.328125 305.664062 L 278 305.664062 M 284.695312 311.714844 L 284.695312 311.28125 L 284.050781 311.28125 L 284.050781 311.714844 L 284.695312 312.359375 L 285.777344 312.792969 L 287.722656 312.792969 L 288.800781 312.359375 L 289.449219 311.714844 L 289.882812 310.847656 L 289.882812 307.179688 L 290.3125 306.097656 L 290.960938 305.664062 M 289.449219 311.714844 L 289.449219 307.179688 L 289.882812 306.097656 L 290.960938 305.664062 L 291.394531 305.664062 M 289.449219 310.847656 L 288.800781 310.199219 L 285.777344 309.769531 L 284.050781 309.121094 L 283.617188 308.257812 L 283.617188 307.179688 L 284.050781 306.097656 L 285.777344 305.664062 L 287.289062 305.664062 L 288.367188 306.097656 L 289.449219 307.179688 " transform="matrix(1,0,0,-1,0,341)"/>
<path style="fill:none;stroke-width:1;stroke-linecap:butt;stroke-linejoin:round;stroke:rgb(100%,0%,100%);stroke-opacity:1;stroke-miterlimit:10;" d="M 285.777344 309.769531 L 284.695312 309.121094 L 284.050781 308.257812 L 284.050781 307.179688 L 284.695312 306.097656 L 285.777344 305.664062 M 295.066406 316.464844 L 295.066406 307.609375 L 295.496094 306.097656 L 296.578125 305.664062 L 297.65625 305.664062 L 298.738281 306.097656 L 299.167969 307.179688 M 295.496094 316.464844 L 295.496094 307.609375 L 296.144531 306.097656 L 296.578125 305.664062 M 293.554688 312.792969 L 297.65625 312.792969 M 302.410156 309.769531 L 308.671875 309.769531 L 308.671875 310.847656 L 308.023438 311.714844 L 307.59375 312.359375 L 306.511719 312.792969 L 305 312.792969 L 303.488281 312.359375 L 302.410156 311.28125 L 301.761719 309.769531 L 301.761719 308.691406 L 302.410156 307.179688 L 303.488281 306.097656 L 305 305.664062 L 306.082031 305.664062 L 307.59375 306.097656 L 308.671875 307.179688 M 308.023438 309.769531 L 308.023438 311.28125 L 307.59375 312.359375 M 305 312.792969 L 303.921875 312.359375 L 302.839844 311.28125 L 302.410156 309.769531 L 302.410156 308.691406 L 302.839844 307.179688 L 303.921875 306.097656 L 305 305.664062 M 321.523438 318.625 L 320.445312 317.546875 L 319.367188 316.03125 L 318.285156 313.875 L 317.855469 311.28125 L 317.855469 309.121094 L 318.285156 306.527344 L 319.367188 304.585938 L 320.445312 303.074219 L 321.523438 301.992188 M 320.445312 317.546875 L 319.367188 315.386719 L 318.933594 313.875 L 318.285156 311.28125 L 318.285156 309.121094 L 318.933594 306.527344 L 319.367188 305.015625 L 320.445312 303.074219 M 323.46875 311.28125 L 324.550781 312.359375 L 325.628906 312.792969 L 326.710938 312.792969 L 327.789062 312.359375 L 328.222656 311.714844 L 328.65625 310.199219 L 328.65625 308.257812 L 328.222656 306.097656 L 326.710938 301.992188 M 324.117188 311.714844 L 325.195312 312.359375 L 327.140625 312.359375 L 328.222656 311.714844 M 332.324219 312.792969 L 331.894531 311.28125 L 331.460938 310.199219 L 328.65625 306.527344 L 327.140625 303.9375 L 326.0625 301.992188 M 331.894531 312.792969 L 331.460938 311.28125 L 330.8125 310.199219 L 328.65625 306.527344 M 335.566406 314.953125 L 343.773438 310.199219 L 335.566406 305.664062 M 349.535156 316.464844 L 349.535156 305.664062 M 350.183594 316.464844 L 350.183594 305.664062 M 356.445312 316.464844 L 356.445312 305.664062 M 356.878906 316.464844 L 356.878906 305.664062 M 348.023438 316.464844 L 351.695312 316.464844 M 354.933594 316.464844 L 358.390625 316.464844 M 350.183594 311.28125 L 356.445312 311.28125 M 348.023438 305.664062 L 351.695312 305.664062 M 354.933594 305.664062 L 358.390625 305.664062 M 362.277344 307.175781 L 361.414062 306.746094 L 360.765625 305.882812 L 360.332031 304.371094 L 360.332031 303.289062 L 360.765625 301.777344 L 361.414062 300.914062 L 362.277344 300.480469 L 362.925781 300.480469 L 363.789062 300.914062 L 364.4375 301.777344 L 364.867188 303.289062 M 364.867188 303.289062 L 364.867188 304.371094 L 364.4375 305.882812 L 363.789062 306.746094 L 362.925781 307.175781 L 362.277344 307.175781 L 361.628906 306.746094 L 361.414062 306.527344 L 360.980469 305.882812 L 360.765625 304.371094 L 360.765625 303.289062 L 360.980469 301.777344 L 361.414062 301.128906 L 361.628906 300.914062 L 362.277344 300.480469 " transform="matrix(1,0,0,-1,0,341)"/>
<path style="fill:none;stroke-width:1;stroke-linecap:butt;stroke-linejoin:round;stroke:rgb(100%,0%,100%);stroke-opacity:1;stroke-miterlimit:10;" d="M 362.925781 300.480469 L 363.574219 300.914062 L 363.789062 301.128906 L 364.222656 301.777344 L 364.4375 303.289062 L 364.4375 304.371094 L 364.222656 305.882812 L 363.789062 306.527344 L 363.574219 306.746094 L 362.925781 307.175781 M 363.140625 316.464844 L 363.140625 310.632812 M 363.574219 317.113281 L 363.574219 310.632812 M 363.574219 317.113281 L 360.117188 312.359375 L 365.085938 312.359375 M 362.277344 310.632812 L 364.4375 310.632812 M 367.246094 318.625 L 368.324219 317.546875 L 369.40625 316.03125 L 370.484375 313.871094 L 370.917969 311.28125 L 370.917969 309.121094 L 370.484375 306.527344 L 369.40625 304.585938 L 368.324219 303.074219 L 367.246094 301.992188 M 368.324219 317.546875 L 369.40625 315.386719 L 369.839844 313.871094 L 370.484375 311.28125 L 370.484375 309.121094 L 369.839844 306.527344 L 369.40625 305.015625 L 368.324219 303.074219 " transform="matrix(1,0,0,-1,0,341)"/>
</g>
</svg>
