<?xml version="1.0" encoding="UTF-8" standalone="no"?>
<!-- Created with Inkscape (http://www.inkscape.org/) -->

<svg
   version="1.1"
   id="svg1"
   width="1148.9733"
   height="432.69333"
   viewBox="0 0 1148.9733 432.69333"
   sodipodi:docname="ロゴ＋和・英（カラー）.eps"
   inkscape:version="1.3.2 (091e20e, 2023-11-25)"
   xmlns:inkscape="http://www.inkscape.org/namespaces/inkscape"
   xmlns:sodipodi="http://sodipodi.sourceforge.net/DTD/sodipodi-0.dtd"
   xmlns="http://www.w3.org/2000/svg"
   xmlns:svg="http://www.w3.org/2000/svg">
  <defs
     id="defs1" />
  <sodipodi:namedview
     id="namedview1"
     pagecolor="#ffffff"
     bordercolor="#000000"
     borderopacity="0.25"
     inkscape:showpageshadow="2"
     inkscape:pageopacity="0.0"
     inkscape:pagecheckerboard="0"
     inkscape:deskcolor="#d1d1d1"
     showgrid="false"
     inkscape:zoom="0.45431868"
     inkscape:cx="574.48662"
     inkscape:cy="216.80817"
     inkscape:window-width="1232"
     inkscape:window-height="630"
     inkscape:window-x="2027"
     inkscape:window-y="63"
     inkscape:window-maximized="0"
     inkscape:current-layer="g1">
    <inkscape:page
       x="0"
       y="0"
       inkscape:label="1"
       id="page1"
       width="1148.9733"
       height="432.69333"
       margin="0"
       bleed="0" />
  </sodipodi:namedview>
  <g
     id="g1"
     inkscape:groupmode="layer"
     inkscape:label="1">
    <g
       id="group-R5">
      <path
         id="path2"
         d="m 1260.72,2313.01 c 0,0 -373.13,22.06 -589.818,-337.69 -204.804,-340.05 -19.586,-673.65 49.852,-757.04 87.84,-105.5 250.473,-262.909 537.086,-266.03 0,0 -214.75,42.691 -329.402,272.27 -76.973,154.11 -101.602,317.16 -91.829,454.85 6.438,90.32 25.071,249.89 89.528,373.84 30.883,59.37 136.883,250.27 334.583,259.8"
         style="fill:#4081cb;fill-opacity:1;fill-rule:nonzero;stroke:none"
         transform="matrix(0.13333333,0,0,-0.13333333,0,432.69333)" />
      <path
         id="path3"
         d="m 1260.72,2313.01 c 0,0 -97.93,-6.05 -164.27,-66.09 -25.41,-23.03 -65.57,-59.21 -95.41,-144.51 -34.614,-98.9 -49.677,-264.27 65.14,-435.59 0,0 41.91,-61.96 109.34,-123.94 67.44,-61.95 174.99,-128.43 220.53,-204.12 46.78,-77.75 68.66,-160.35 33.96,-251.51 -46.3,-121.578 -172.17,-135 -172.17,-135 0,0 89.8,-13.25 181.44,72.16 76.79,71.56 96.36,136.29 103.97,197.14 1.79,14.27 3.17,20.87 4.71,37.88 11.52,126.8 -26.12,227.97 -79.01,310.8 -39.04,61.19 -164.02,173.14 -286.14,284.31 0,0 -73.47,61.21 -100.23,149.45 -26.19,86.4 0.27,153.49 5.47,167.66 3.41,9.31 49.82,116.65 172.67,141.36"
         style="fill:#fab20b;fill-opacity:1;fill-rule:nonzero;stroke:none"
         transform="matrix(0.13333333,0,0,-0.13333333,0,432.69333)" />
      <path
         id="path4"
         d="m 920.141,2653.04 c 0,0 159.329,-23.73 294.259,-108.21 155.53,-97.38 261.35,-256.55 336.55,-443.04 90.07,-223.31 105.22,-440.86 91.13,-589.29 -25.07,-264.06 -123.68,-459.99 -252.7,-612.328 0,0 -103.58,-120.891 -217.49,-193.184 -64.54,-40.957 -151.27,-73.519 -251.288,-94.929 0,0 68.128,-4.11 189.318,17.761 121.2,21.899 245.12,72.91 331.7,124.828 86.55,51.954 188.62,127.571 297.07,267.912 108.42,140.34 173.12,276.13 199.05,524.07 24.61,235.4 -42.93,436.09 -141.34,607.4 -98.43,171.32 -255.15,302.54 -388.82,374.23 -133.64,71.68 -280.65,128.79 -487.439,124.78"
         style="fill:#4081cb;fill-opacity:1;fill-rule:nonzero;stroke:none"
         transform="matrix(0.13333333,0,0,-0.13333333,0,432.69333)" />
      <path
         id="path5"
         d="m 2343.16,2187.41 v -30.38 h -197.44 v -34.87 h 197.44 v -42.19 H 2159.22 V 1890.4 h 142.88 c -16.59,-23.18 -39.27,-43.72 -67.97,-61.61 -28.73,-17.88 -58.19,-30.13 -88.41,-36.75 v -37.76 c 40.89,6.98 78.44,22.27 112.68,45.87 34.24,23.6 62.51,53.68 84.76,90.25 v -136.12 h 40.5 v 134.82 c 22.54,-36.49 50.78,-66.34 84.75,-89.55 33.96,-23.22 71.14,-38.31 111.57,-45.27 v 37.76 c -30.56,6.95 -60.02,19.29 -88.39,37.01 -28.41,17.72 -50.89,38.17 -67.48,61.35 h 142.36 v 189.57 h -182.81 v 42.19 h 196.32 v 34.87 h -196.32 v 30.38 z M 2198.6,2047.9 h 144.56 v -48.37 H 2198.6 Z m 0,-78.18 h 144.56 v -48.38 H 2198.6 Z m 185.06,78.18 h 143.44 v -48.37 h -143.44 z m 0,-78.18 h 143.44 v -48.38 h -143.44 v 48.38"
         style="fill:#231f20;fill-opacity:1;fill-rule:nonzero;stroke:none"
         transform="matrix(0.13333333,0,0,-0.13333333,0,432.69333)" />
      <path
         id="path6"
         d="m 3012.2,1880.28 64.25,-124.45 h 39.8 l -63.27,124.45 z m -255.74,0 c -5.63,-22.9 -16.25,-47.13 -31.82,-72.68 -14.27,-22.9 -28.03,-40.14 -41.31,-51.77 l 45.78,0.14 c 15.26,14.25 29.35,33.81 42.27,58.67 11.6,21.88 20.08,43.76 25.39,65.64 z m -45.32,195.75 v -162 h 177.17 v -101.58 c 0,-5.64 -1.89,-10.39 -5.71,-14.2 -3.82,-3.81 -8.54,-5.72 -14.19,-5.72 h -46.26 v -38.25 h 52.36 c 16.3,0 29.52,4.73 39.66,14.19 10.14,9.45 15.21,23.31 15.21,41.55 v 104.01 h 160.31 v 162 z M 2881,2187.46 v -30.24 h -197.98 v -34.88 h 434.79 v 34.88 h -196.87 v 30.24 z m -130.48,-146.3 h 299.79 v -92.82 h -299.79 v 92.82"
         style="fill:#231f20;fill-opacity:1;fill-rule:nonzero;stroke:none"
         transform="matrix(0.13333333,0,0,-0.13333333,0,432.69333)" />
      <path
         id="path7"
         d="m 3458.79,2187.41 v -98.96 h 195.75 v -41.06 h -192.93 c 6.25,-60.33 26.72,-117.31 61.34,-160.73 34.63,-43.42 78.49,-73.25 131.59,-89.48 v -42.76 c -50.45,13.27 -94.29,37.47 -131.44,72.63 -37.2,35.15 -64.91,77.6 -83.17,127.36 -18.26,-51.09 -46.16,-94.03 -83.67,-128.85 -38.85,-36.16 -84.18,-59.86 -135.97,-71.14 v 42.76 c 56.1,14.58 102.34,43.59 138.73,87 38.39,46.07 57.59,103.88 57.59,163.21 h -196.32 v 41.06 h 196.32 v 98.96 h 42.18"
         style="fill:#231f20;fill-opacity:1;fill-rule:nonzero;stroke:none"
         transform="matrix(0.13333333,0,0,-0.13333333,0,432.69333)" />
      <path
         id="path8"
         d="m 4117,2037.22 v -34.26 c -9.98,-10.92 -25.94,-22.51 -47.9,-34.75 -24.29,-13.57 -48.06,-23.66 -71.35,-30.28 v -23.34 h 194.07 v -37.12 h -194.07 v -72.82 c 0,-14.96 -4.65,-27.09 -13.93,-36.4 -9.29,-9.31 -21.42,-13.97 -36.34,-13.97 h -88.09 v 37.13 h 77.49 c 5.63,0 10.44,1.99 14.42,6 3.97,4 5.96,9 5.96,15.01 v 65.05 h -199.69 v 37.12 h 199.69 v 39.8 c 18.26,3.97 36.26,10.03 54.05,18.16 17.75,8.12 34.12,17.49 49.06,28.1 h -227.99 v 36.57 z m -298.17,84.37 c -1.67,12.87 -4.15,24.99 -7.49,36.37 -3.3,11.38 -7.14,21.19 -11.45,29.45 h 38.84 c 3.34,-6.93 6.82,-16.5 10.47,-28.71 3.64,-12.21 6.63,-24.57 8.96,-37.11 h 94.61 c -1.65,12.87 -4.08,24.91 -7.22,36.12 -3.15,11.22 -7.05,21.12 -11.69,29.7 h 38.85 c 3.97,-6.6 7.7,-16.18 11.18,-28.71 3.47,-12.53 6.22,-24.91 8.22,-37.11 h 91.64 l 24.9,65.82 h 40.33 l -24.4,-65.82 h 67.24 v -93.28 h -38.26 v 56.72 h -357.74 v -56.21 h -38.25 v 92.77 h 61.26"
         style="fill:#231f20;fill-opacity:1;fill-rule:nonzero;stroke:none"
         transform="matrix(0.13333333,0,0,-0.13333333,0,432.69333)" />
      <path
         id="path9"
         d="m 4698.88,2187.41 v -98.96 h 195.75 v -41.06 h -192.94 c 6.26,-60.33 26.72,-117.31 61.35,-160.73 34.63,-43.42 78.48,-73.25 131.59,-89.48 v -42.76 c -50.45,13.27 -94.28,37.47 -131.46,72.63 -37.17,35.15 -64.89,77.6 -83.15,127.36 -18.27,-51.09 -46.16,-94.03 -83.67,-128.85 -38.85,-36.16 -84.17,-59.86 -135.88,-71.14 v 42.76 c 55.99,14.58 102.24,43.59 138.63,87 38.39,46.07 57.59,103.88 57.59,163.21 h -196.22 v 41.06 h 196.22 v 98.96 h 42.19"
         style="fill:#231f20;fill-opacity:1;fill-rule:nonzero;stroke:none"
         transform="matrix(0.13333333,0,0,-0.13333333,0,432.69333)" />
      <path
         id="path10"
         d="m 5357.11,2037.22 v -34.26 c -9.99,-10.92 -25.95,-22.51 -47.9,-34.75 -24.3,-13.57 -48.08,-23.66 -71.35,-30.28 v -23.34 h 194.06 v -37.12 h -194.06 v -72.82 c 0,-14.96 -4.66,-27.09 -13.94,-36.4 -9.3,-9.31 -21.41,-13.97 -36.33,-13.97 h -88.11 v 37.13 h 77.5 c 5.63,0 10.43,1.99 14.4,6 3.97,4 5.97,9 5.97,15.01 v 65.05 h -199.68 v 37.12 h 199.68 v 39.8 c 18.28,3.97 36.27,10.03 54.05,18.16 17.76,8.12 34.13,17.49 49.07,28.1 h -227.99 v 36.57 z m -298.19,84.37 c -1.66,12.87 -4.15,24.99 -7.47,36.37 -3.33,11.38 -7.14,21.19 -11.45,29.45 h 38.83 c 3.32,-6.93 6.8,-16.5 10.46,-28.71 3.65,-12.21 6.64,-24.57 8.96,-37.11 h 94.62 c -1.67,12.87 -4.07,24.91 -7.22,36.12 -3.16,11.22 -7.07,21.12 -11.7,29.7 h 38.84 c 3.99,-6.6 7.72,-16.18 11.19,-28.71 3.49,-12.53 6.23,-24.91 8.24,-37.11 h 91.63 l 24.89,65.82 h 40.34 l -24.39,-65.82 h 67.23 v -93.28 h -38.25 v 56.72 h -357.75 v -56.21 h -38.25 v 92.77 h 61.25"
         style="fill:#231f20;fill-opacity:1;fill-rule:nonzero;stroke:none"
         transform="matrix(0.13333333,0,0,-0.13333333,0,432.69333)" />
      <path
         id="path11"
         d="m 5567.22,2178.97 v -424.55 h 34.31 v 50.49 h 28.06 c 20.68,0 37.97,6.88 51.84,20.66 13.84,13.78 20.79,32.79 20.79,57.03 v 33.87 c 0,23.24 -2.84,42.51 -8.49,57.78 -5.66,15.28 -14.65,29.22 -26.95,41.84 l 29.26,128.5 v 34.38 z m 145.69,-20.25 v -89.24 h 37.12 v 53.24 h 201.38 v -53.24 h 37.13 v 89.24 h -119.26 v 28.69 h -40.5 v -28.69 z m 42.26,-98.44 v -36.56 h 194 v 36.56 z m -34.72,-104.63 v -36.56 h 63.9 c 0,-35.82 -6.75,-63.93 -20.22,-84.33 -13.47,-20.4 -32.34,-33.75 -56.62,-40.04 v -40.3 c 37.64,9.29 65.94,27.94 84.92,55.97 18.99,28.02 28.48,64.26 28.48,108.7 h 53.44 v -111.42 c 0,-13.28 4.6,-24.55 13.82,-33.83 9.23,-9.28 20.43,-13.93 33.62,-13.93 h 33.13 c 15.49,0 26.68,2.66 33.62,7.97 v 39.84 c -4.63,-4.08 -9.58,-6.88 -14.85,-8.4 -5.27,-1.53 -11.37,-2.29 -18.29,-2.29 h -26.21 c -4.94,0 -9.23,1.82 -12.85,5.47 -3.63,3.66 -5.43,7.98 -5.43,12.96 v 103.63 h 73.21 v 36.56 z m -118.92,186.76 h 58.61 l -27.67,-132.45 c 11.93,-10.97 20.64,-24.25 26.1,-39.85 5.47,-15.6 8.21,-33.68 8.21,-54.26 v -26.89 c 0,-14.28 -3.44,-25.48 -10.3,-33.61 -6.85,-8.13 -16.8,-12.2 -29.87,-12.2 h -25.08 v 299.26"
         style="fill:#231f20;fill-opacity:1;fill-rule:nonzero;stroke:none"
         transform="matrix(0.13333333,0,0,-0.13333333,0,432.69333)" />
      <path
         id="path12"
         d="m 2461.29,1438.44 h 70.31 v -63.55 h -70.31 z m 0,96.79 h 70.31 v -64.16 h -70.31 z m -106.31,-96.79 h 68.62 v -63.55 h -68.62 z m -35.44,128.25 v -223.87 h 104.06 v -63 h -104.06 v -35.44 h 104.06 v -61.31 h -119.25 v -35.44 h 275.63 v 35.44 h -118.69 v 61.31 h 105.18 v 35.44 h -105.18 v 63 h 105.18 v 223.87 z m -173.82,0 v -36.76 h 55.69 v -133.68 h -49.22 v -37.11 h 49.22 v -167.07 h -55.69 v -37.12 H 2207 c 17.93,0 34.37,1.98 49.31,5.97 14.94,4 27.4,9.3 37.35,15.95 v 41.82 c -9.95,-6.97 -19.16,-12.35 -27.63,-16.18 -8.46,-3.79 -18,-6.54 -28.62,-8.19 v 164.82 h 47.25 v 37.11 h -47.25 v 133.68 h 56.25 v 36.76 z m 209.26,-31.46 h 68.62 v -64.16 h -68.62 v 64.16"
         style="fill:#231f20;fill-opacity:1;fill-rule:nonzero;stroke:none"
         transform="matrix(0.13333333,0,0,-0.13333333,0,432.69333)" />
      <path
         id="path13"
         d="m 3042.44,1424.95 v -34.28 c -9.99,-10.92 -25.95,-22.5 -47.88,-34.74 -24.3,-13.56 -48.08,-23.66 -71.37,-30.28 v -23.33 h 194.06 v -37.12 h -194.06 v -72.83 c 0,-14.96 -4.65,-27.09 -13.92,-36.41 -9.3,-9.31 -21.41,-13.95 -36.35,-13.95 h -88.09 v 37.13 h 77.5 c 5.63,0 10.42,1.98 14.4,5.99 3.97,3.99 5.96,9 5.96,15.01 v 65.06 h -199.67 v 37.12 h 199.67 v 39.79 c 18.28,3.98 36.28,10.02 54.05,18.15 17.77,8.12 34.12,17.51 49.06,28.12 h -227.97 v 36.57 z m -298.18,84.37 c -1.65,12.87 -4.15,24.98 -7.47,36.35 -3.32,11.39 -7.14,21.2 -11.44,29.45 h 38.82 c 3.33,-6.92 6.81,-16.49 10.46,-28.71 3.64,-12.2 6.63,-24.57 8.97,-37.09 h 94.62 c -1.67,12.87 -4.07,24.89 -7.24,36.1 -3.15,11.23 -7.05,21.14 -11.69,29.7 h 38.85 c 3.99,-6.6 7.71,-16.16 11.2,-28.71 3.48,-12.52 6.22,-24.89 8.22,-37.09 h 91.62 l 24.91,65.8 h 40.34 l -24.4,-65.8 h 67.22 v -93.29 H 3079 v 56.73 h -357.73 v -56.21 h -38.25 v 92.77 h 61.24"
         style="fill:#231f20;fill-opacity:1;fill-rule:nonzero;stroke:none"
         transform="matrix(0.13333333,0,0,-0.13333333,0,432.69333)" />
      <path
         id="path14"
         d="m 3641.22,1539.82 c -27.53,-6.63 -62.1,-11.69 -103.73,-15.17 -41.63,-3.48 -90.12,-5.2 -145.51,-5.2 l -89.04,-91.13 h 128.85 l 64.16,60.19 h 50.26 l -172.13,-165.38 c 89.88,0 158.19,10.45 204.96,31.33 l -30.35,69.15 h 38.81 l 67.66,-153.74 h -39.76 l -22.87,53.26 c -18.57,-9.3 -38.29,-16.44 -59.15,-21.41 -20.87,-4.97 -46.22,-8.79 -76.05,-11.44 v -148.27 h -39.93 v 145.69 c -19.92,0 -53.07,-0.5 -99.51,-1.41 -46.44,-0.95 -78.79,-1.4 -97.04,-1.4 v 38.24 h 99.99 l 75.13,71.44 h -142.28 v 33.75 l 89.05,91.13 -118.9,-0.5 v 36.49 c 82.9,0 149.31,0.39 199.24,1.23 49.92,0.81 91.54,2.47 124.87,4.93 33.33,2.46 64.4,6.96 93.27,13.52 z m -301.96,-278.57 c -5.97,-22.52 -14.94,-44.15 -26.88,-64.86 -11.93,-20.7 -26.36,-38.81 -43.27,-54.38 h -48.26 c 16.58,12.58 32.6,30.55 48.01,53.89 15.42,23.34 25.79,45.14 31.1,65.35 z m 241.28,0 74.11,-119.24 h -41.78 l -73.13,119.24 h 40.8"
         style="fill:#231f20;fill-opacity:1;fill-rule:nonzero;stroke:none"
         transform="matrix(0.13333333,0,0,-0.13333333,0,432.69333)" />
      <path
         id="path15"
         d="m 3757.57,1529.85 h 68.06 c 0,-31.18 -6.14,-62.05 -18.38,-92.56 -12.26,-30.54 -28.82,-56.92 -49.68,-79.14 v -56.25 c 5.33,4.99 10.63,10.61 15.97,16.92 3.31,3.65 8.31,9.47 14.97,17.42 v -188.61 h 135.56 v 261.01 h -90.88 c 9.52,21.27 16.82,41.95 21.92,62.06 5.1,20.11 7.64,39.81 7.64,59.08 h 75.94 v 36.91 h -181.12 z m 205.31,-0.56 h 39.94 v -143.15 h -39.94 v -36.57 h 39.94 c 0,-40.16 -4.28,-72.85 -12.82,-98.07 -8.53,-25.23 -19.82,-44.13 -33.87,-56.74 v -52.75 c 27.62,18.91 48.61,45.37 62.91,79.38 14.31,34.01 21.47,76.75 21.47,128.18 H 4117 v -207.56 h 37.7 v 207.56 h 37.12 v 36.57 h -37.12 v 143.15 h 37.12 v 37.4 h -228.94 z m -140.06,-157.22 h 68.06 v -187.31 h -68.06 z m 217.69,156.83 H 4117 v -142.76 h -76.49 v 142.76"
         style="fill:#231f20;fill-opacity:1;fill-rule:nonzero;stroke:none"
         transform="matrix(0.13333333,0,0,-0.13333333,0,432.69333)" />
      <path
         id="path16"
         d="m 4308.29,1342.82 h 120.99 c 0,5.31 0.28,14.84 0.85,28.58 0.55,13.78 0.84,21.82 0.84,24.15 h 40.45 c 0,-6.64 -0.29,-15.76 -0.84,-27.36 -0.57,-11.62 -0.85,-20.06 -0.85,-25.37 h 165.3 v -136.48 c 0,-6.29 1.41,-11.07 4.22,-14.37 2.81,-3.31 7.72,-4.96 14.68,-4.96 h 33.78 c 15.58,0 29.32,5.06 41.26,15.18 v -43.16 c -11.95,-7.6 -25.74,-11.4 -41.34,-11.4 h -44.34 c -14.29,0 -26.06,4.31 -35.36,12.9 -9.3,8.62 -13.96,20.89 -13.96,36.8 v 108.37 h -130.86 c -9.27,-46.1 -27.68,-82.38 -55.24,-108.88 -27.56,-26.51 -65.21,-44.73 -113.03,-54.67 v 38.77 c 37.9,9.6 66.93,23.95 87.05,43 20.11,19.05 34,46.3 41.65,81.78 h -115.25 z m 223.24,232.3 v -23.05 h 197.44 v -95.06 h -38.81 v 59.06 h -112.5 v -67.15 c 0,-6.61 1.82,-12.09 5.48,-16.4 3.64,-4.3 8.62,-6.45 14.93,-6.45 h 60.73 c 15.93,0 30.54,5.24 43.81,15.75 v -39.22 c -13.27,-7.61 -27.53,-11.4 -42.8,-11.4 h -68.65 c -14.93,0 -27.28,4.88 -37.08,14.65 -9.78,9.8 -14.68,22.47 -14.68,38.08 v 72.14 h -64.71 c -5.31,-42.78 -21.07,-74.46 -47.29,-95.03 -26.25,-20.57 -65.95,-33.32 -119.11,-38.28 v 37.68 c 41.5,0 72.12,7.8 91.89,23.4 19.75,15.61 31.6,39.68 35.6,72.23 h -102.13 v -59.06 h -38.81 v 95.06 h 197.36 v 23.05 h 39.33"
         style="fill:#231f20;fill-opacity:1;fill-rule:nonzero;stroke:none"
         transform="matrix(0.13333333,0,0,-0.13333333,0,432.69333)" />
      <path
         id="path17"
         d="m 5027.01,1536.41 c -13.55,-6.94 -36.38,-12.57 -68.46,-16.87 v -62.53 h 84.95 v -36 h -84.95 v -40.29 l 84.95,-59.18 v -42.78 l -84.95,63.17 v -199.92 h -38.24 v 181.09 c -10.97,-23.22 -23.45,-44.28 -37.43,-63.17 -15.96,-21.58 -32.92,-39.31 -50.89,-53.24 v 51.72 c 22.63,19.21 42.58,44.74 59.88,76.57 16.29,29.81 25.79,57.16 28.44,82.04 v 3.99 h -88.32 v 36 h 88.32 v 57.94 c -8.98,0 -23.63,-0.6 -43.91,-1.76 -20.29,-1.16 -35.09,-1.72 -44.41,-1.72 v 34.98 c 47.43,0 87.72,2.53 120.89,7.66 33.17,5.09 57.88,12.12 74.13,21.01 z m 132.37,-25.46 v -40.79 l -82.7,44.79 v 38.79 z m 0,-127.6 v -41.3 l -82.7,44.27 v 39.81 z m 71.99,191.77 v -301.35 l 34.88,4.97 v -39.28 l -34.88,-4.97 v -92.48 h -39.93 v 87.33 l -141.09,-20.39 v 39.23 l 141.09,19.88 v 307.06 h 39.93"
         style="fill:#231f20;fill-opacity:1;fill-rule:nonzero;stroke:none"
         transform="matrix(0.13333333,0,0,-0.13333333,0,432.69333)" />
      <path
         id="path18"
         d="m 5437.95,1327.72 h -55.7 v 56.73 h 55.7 v -56.73"
         style="fill:#231f20;fill-opacity:1;fill-rule:nonzero;stroke:none"
         transform="matrix(0.13333333,0,0,-0.13333333,0,432.69333)" />
      <path
         id="path19"
         d="m 5881.36,1438.44 h 70.31 v -63.55 h -70.31 z m 0,96.79 h 70.31 v -64.16 h -70.31 z m -106.31,-96.79 h 68.62 v -63.55 h -68.62 z m -35.44,128.25 v -223.87 h 104.06 v -63 h -104.06 v -35.44 h 104.06 v -61.31 h -119.25 v -35.44 h 275.63 v 35.44 h -118.69 v 61.31 h 105.18 v 35.44 h -105.18 v 63 h 105.18 v 223.87 z m -173.82,0 v -36.76 h 55.69 v -133.68 h -49.21 v -37.11 h 49.21 v -167.07 h -55.69 v -37.12 h 61.26 c 17.93,0 34.37,1.98 49.31,5.97 14.94,4 27.41,9.3 37.37,15.95 v 41.82 c -9.96,-6.97 -19.18,-12.35 -27.63,-16.18 -8.47,-3.79 -18,-6.54 -28.62,-8.19 v 164.82 h 47.26 v 37.11 h -47.26 v 133.68 h 56.25 v 36.76 z m 209.26,-31.46 h 68.62 v -64.16 h -68.62 v 64.16"
         style="fill:#231f20;fill-opacity:1;fill-rule:nonzero;stroke:none"
         transform="matrix(0.13333333,0,0,-0.13333333,0,432.69333)" />
      <path
         id="path20"
         d="m 6462.51,1424.95 v -34.28 c -9.99,-10.92 -25.95,-22.5 -47.9,-34.74 -24.3,-13.56 -48.08,-23.66 -71.35,-30.28 v -23.33 h 194.06 v -37.12 h -194.06 v -72.83 c 0,-14.96 -4.66,-27.09 -13.94,-36.41 -9.3,-9.31 -21.41,-13.95 -36.33,-13.95 h -88.11 v 37.13 h 77.5 c 5.63,0 10.43,1.98 14.4,5.99 3.97,3.99 5.97,9 5.97,15.01 v 65.06 h -199.68 v 37.12 h 199.68 v 39.79 c 18.28,3.98 36.27,10.02 54.05,18.15 17.76,8.12 34.13,17.51 49.07,28.12 h -227.99 v 36.57 z m -298.19,84.37 c -1.66,12.87 -4.15,24.98 -7.47,36.35 -3.33,11.39 -7.14,21.2 -11.45,29.45 h 38.83 c 3.32,-6.92 6.81,-16.49 10.46,-28.71 3.65,-12.2 6.64,-24.57 8.96,-37.09 h 94.62 c -1.67,12.87 -4.07,24.89 -7.22,36.1 -3.16,11.23 -7.07,21.14 -11.7,29.7 h 38.84 c 3.99,-6.6 7.72,-16.16 11.19,-28.71 3.49,-12.52 6.24,-24.89 8.24,-37.09 h 91.63 l 24.89,65.8 h 40.34 l -24.39,-65.8 h 67.23 v -93.29 h -38.25 v 56.73 h -357.75 v -56.21 h -38.25 v 92.77 h 61.25"
         style="fill:#231f20;fill-opacity:1;fill-rule:nonzero;stroke:none"
         transform="matrix(0.13333333,0,0,-0.13333333,0,432.69333)" />
      <path
         id="path21"
         d="m 6719.33,1459.75 c -2.86,21.16 -6.02,39.16 -9.5,54.07 h 105.96 l -12.53,-109.13 h -79.67 c 0,15.55 -1.42,33.9 -4.26,55.06 z m 185.39,106.94 v -424.68 h 37.13 v 388.97 h 83.07 c 0,-40.16 -2.59,-69.33 -7.73,-87.58 -5.14,-18.24 -16,-36.14 -32.59,-53.72 21.27,-14.59 35.4,-29.51 42.39,-44.76 6.98,-15.27 10.48,-36.82 10.48,-64.68 0,-21.23 -3.82,-36.74 -11.43,-46.51 -7.62,-9.77 -18.38,-14.66 -32.3,-14.66 h -28.83 v -41.06 h 32.77 c 26.5,0 46.01,7.63 58.6,22.9 12.59,15.28 18.88,40.68 18.88,76.22 0,30.55 -3.5,54.61 -10.48,72.23 -6.99,17.6 -18.31,33.05 -33.96,46.34 11.01,12.55 18.84,28.68 23.5,48.37 4.66,19.68 7.02,48.55 7.02,86.63 v 35.99 z m -250.87,-245.81 v -173.25 h 218.81 v 173.25 z m 89.43,254.24 v -25.3 h -89.43 v -36 h 19.28 c 3.62,-15.89 6.75,-34.25 9.39,-55.08 2.64,-20.83 3.95,-38.85 3.95,-54.05 h -46.13 v -35.99 h 246.95 v 35.99 h -47.45 l 12.11,109.13 h 20.71 v 36 h -90 v 25.3 z m -51.18,-289.11 h 142.87 V 1183.07 H 6692.1 v 102.94"
         style="fill:#231f20;fill-opacity:1;fill-rule:nonzero;stroke:none"
         transform="matrix(0.13333333,0,0,-0.13333333,0,432.69333)" />
      <path
         id="path22"
         d="m 2160.1,880.969 c 1.2,-10.16 3.31,-16.039 8.03,-21.707 5.89,-6.832 15.11,-11.09 24.78,-11.09 16.99,0 31.39,14.629 31.39,31.629 0,8.488 -4.01,16.75 -10.86,22.41 -5.67,4.711 -11.33,7.309 -24.3,10.621 -16.27,4 -23.13,7.309 -29.49,13.688 -7.09,7.082 -11.11,17 -11.11,27.839 0,24.77 18.88,42.711 44.61,42.711 24.31,0 43.42,-18.648 43.42,-42.711 h -16.53 c -1.15,17 -12.72,28.563 -28.54,28.563 -15.33,0 -27.14,-12.262 -27.14,-28.082 0,-6.86 3.06,-13.93 7.55,-17.711 4.26,-3.527 11.33,-6.828 23.37,-10.129 18.65,-5.211 22.18,-6.609 29.27,-12.52 9.66,-8.261 15.57,-20.988 15.57,-33.98 0,-25.719 -21.48,-46.488 -47.92,-46.488 -27.84,0 -47.67,18.879 -48.83,46.957 h 16.73"
         style="fill:#231f20;fill-opacity:1;fill-rule:nonzero;stroke:none"
         transform="matrix(0.13333333,0,0,-0.13333333,0,432.69333)" />
      <path
         id="path23"
         d="m 2407.18,878.141 c -14.62,-27.141 -42.47,-44.129 -72.21,-44.129 -45.77,0 -82.58,36.097 -82.58,80.707 0,46.48 35.86,82.351 82.82,82.351 18.64,0 36.82,-6.609 51.68,-18.871 10.15,-8.488 16.04,-15.801 19.59,-24.308 H 2389 c -12.02,17.929 -32.79,29.031 -54.73,29.031 -35.4,0 -66.08,-31.391 -66.08,-67.742 0,-35.86 31.15,-67.008 66.78,-67.008 12.97,0 28.55,5.418 39.66,13.918 5.41,4.262 9.42,8.512 15.08,16.051 h 17.47"
         style="fill:#231f20;fill-opacity:1;fill-rule:nonzero;stroke:none"
         transform="matrix(0.13333333,0,0,-0.13333333,0,432.69333)" />
      <path
         id="path24"
         d="m 2430.54,994.242 h 15.81 v -69.371 h 81.42 v 69.371 h 15.82 v -157.39 h -15.82 v 73.867 h -81.42 v -73.867 h -15.81 v 157.39"
         style="fill:#231f20;fill-opacity:1;fill-rule:nonzero;stroke:none"
         transform="matrix(0.13333333,0,0,-0.13333333,0,432.69333)" />
      <path
         id="path25"
         d="m 2652.13,997.07 c -45.31,0 -83.3,-36.82 -83.3,-80.699 0,-45.562 37.05,-82.359 83.3,-82.359 45.3,0 83.3,36.797 83.3,80.707 0,45.773 -37.05,82.351 -83.3,82.351 z m 0,-14.148 c 37.28,0 67.48,-30.442 67.48,-68.203 0,-36.098 -30.9,-66.547 -67.48,-66.547 -37.28,0 -67.48,30.449 -67.48,67.957 0,36.101 30.9,66.793 67.48,66.793"
         style="fill:#231f20;fill-opacity:1;fill-rule:nonzero;stroke:none"
         transform="matrix(0.13333333,0,0,-0.13333333,0,432.69333)" />
      <path
         id="path26"
         d="m 2835.49,997.07 c -45.3,0 -83.3,-36.82 -83.3,-80.699 0,-45.562 37.05,-82.359 83.3,-82.359 45.3,0 83.3,36.797 83.3,80.707 0,45.773 -37.05,82.351 -83.3,82.351 z m 0,-14.148 c 37.28,0 67.48,-30.442 67.48,-68.203 0,-36.098 -30.9,-66.547 -67.48,-66.547 -37.28,0 -67.48,30.449 -67.48,67.957 0,36.101 30.9,66.793 67.48,66.793"
         style="fill:#231f20;fill-opacity:1;fill-rule:nonzero;stroke:none"
         transform="matrix(0.13333333,0,0,-0.13333333,0,432.69333)" />
      <path
         id="path27"
         d="m 2939.55,994.242 h 15.81 V 851 h 65.14 v -14.148 h -80.95 v 157.39"
         style="fill:#231f20;fill-opacity:1;fill-rule:nonzero;stroke:none"
         transform="matrix(0.13333333,0,0,-0.13333333,0,432.69333)" />
      <path
         id="path28"
         d="m 3175.29,997.07 c -45.29,0 -83.28,-36.82 -83.28,-80.699 0,-45.562 37.03,-82.359 83.28,-82.359 45.32,0 83.32,36.797 83.32,80.707 0,45.773 -37.05,82.351 -83.32,82.351 z m 0,-14.148 c 37.3,0 67.5,-30.442 67.5,-68.203 0,-36.098 -30.9,-66.547 -67.5,-66.547 -37.26,0 -67.48,30.449 -67.48,67.957 0,36.101 30.92,66.793 67.48,66.793"
         style="fill:#231f20;fill-opacity:1;fill-rule:nonzero;stroke:none"
         transform="matrix(0.13333333,0,0,-0.13333333,0,432.69333)" />
      <path
         id="path29"
         d="m 3274.64,994.242 h 79.53 v -14.16 h -63.71 V 922.98 h 61.35 v -14.171 h -61.35 v -71.957 h -15.82 v 157.39"
         style="fill:#231f20;fill-opacity:1;fill-rule:nonzero;stroke:none"
         transform="matrix(0.13333333,0,0,-0.13333333,0,432.69333)" />
      <path
         id="path30"
         d="m 3454.22,880.969 c 1.2,-10.16 3.31,-16.039 8.04,-21.707 5.88,-6.832 15.09,-11.09 24.76,-11.09 17,0 31.4,14.629 31.4,31.629 0,8.488 -4.01,16.75 -10.87,22.41 -5.66,4.711 -11.31,7.309 -24.29,10.621 -16.28,4 -23.13,7.309 -29.5,13.688 -7.08,7.082 -11.1,17 -11.1,27.839 0,24.77 18.87,42.711 44.61,42.711 24.31,0 43.42,-18.648 43.42,-42.711 h -16.52 c -1.17,17 -12.73,28.563 -28.55,28.563 -15.33,0 -27.14,-12.262 -27.14,-28.082 0,-6.86 3.05,-13.93 7.56,-17.711 4.25,-3.527 11.31,-6.828 23.35,-10.129 18.66,-5.211 22.19,-6.609 29.27,-12.52 9.67,-8.261 15.58,-20.988 15.58,-33.98 0,-25.719 -21.48,-46.488 -47.92,-46.488 -27.84,0 -47.67,18.879 -48.83,46.957 h 16.73"
         style="fill:#231f20;fill-opacity:1;fill-rule:nonzero;stroke:none"
         transform="matrix(0.13333333,0,0,-0.13333333,0,432.69333)" />
      <path
         id="path31"
         d="m 3701.3,878.141 c -14.63,-27.141 -42.47,-44.129 -72.21,-44.129 -45.77,0 -82.58,36.097 -82.58,80.707 0,46.48 35.86,82.351 82.83,82.351 18.63,0 36.8,-6.609 51.68,-18.871 10.14,-8.488 16.03,-15.801 19.58,-24.308 h -17.47 c -12.03,17.929 -32.81,29.031 -54.74,29.031 -35.41,0 -66.08,-31.391 -66.08,-67.742 0,-35.86 31.15,-67.008 66.78,-67.008 12.97,0 28.55,5.418 39.66,13.918 5.41,4.262 9.42,8.512 15.1,16.051 h 17.45"
         style="fill:#231f20;fill-opacity:1;fill-rule:nonzero;stroke:none"
         transform="matrix(0.13333333,0,0,-0.13333333,0,432.69333)" />
      <path
         id="path32"
         d="m 3729.39,994.242 h 15.81 v -157.39 h -15.81 v 157.39"
         style="fill:#231f20;fill-opacity:1;fill-rule:nonzero;stroke:none"
         transform="matrix(0.13333333,0,0,-0.13333333,0,432.69333)" />
      <path
         id="path33"
         d="m 3788.61,994.242 h 86.16 v -14.16 h -70.36 v -56.641 h 67.98 v -14.152 h -67.98 V 851 h 70.36 v -14.148 h -86.16 v 157.39"
         style="fill:#231f20;fill-opacity:1;fill-rule:nonzero;stroke:none"
         transform="matrix(0.13333333,0,0,-0.13333333,0,432.69333)" />
      <path
         id="path34"
         d="m 3907.55,994.242 h 21.25 L 4017.04,863.5 v 130.742 h 15.82 v -157.39 h -15.82 l -93.69,138.519 V 836.852 h -15.8 v 157.39"
         style="fill:#231f20;fill-opacity:1;fill-rule:nonzero;stroke:none"
         transform="matrix(0.13333333,0,0,-0.13333333,0,432.69333)" />
      <path
         id="path35"
         d="m 4208.18,878.141 c -14.63,-27.141 -42.47,-44.129 -72.2,-44.129 -45.78,0 -82.59,36.097 -82.59,80.707 0,46.48 35.86,82.351 82.83,82.351 18.63,0 36.81,-6.609 51.68,-18.871 10.14,-8.488 16.03,-15.801 19.58,-24.308 h -17.47 c -12.02,17.929 -32.8,29.031 -54.74,29.031 -35.41,0 -66.08,-31.391 -66.08,-67.742 0,-35.86 31.15,-67.008 66.79,-67.008 12.97,0 28.54,5.418 39.65,13.918 5.41,4.262 9.42,8.512 15.1,16.051 h 17.45"
         style="fill:#231f20;fill-opacity:1;fill-rule:nonzero;stroke:none"
         transform="matrix(0.13333333,0,0,-0.13333333,0,432.69333)" />
      <path
         id="path36"
         d="m 4231.54,994.242 h 86.16 v -14.16 h -70.36 v -56.641 h 67.98 v -14.152 h -67.98 V 851 h 70.36 v -14.148 h -86.16 v 157.39"
         style="fill:#231f20;fill-opacity:1;fill-rule:nonzero;stroke:none"
         transform="matrix(0.13333333,0,0,-0.13333333,0,432.69333)" />
      <path
         id="path37"
         d="m 4350.7,863.5 h 15.82 l -18.63,-41.059 h -15.82 l 18.63,41.059"
         style="fill:#231f20;fill-opacity:1;fill-rule:nonzero;stroke:none"
         transform="matrix(0.13333333,0,0,-0.13333333,0,432.69333)" />
      <path
         id="path38"
         d="m 4463.72,980.082 h -36.07 v 14.16 h 87.91 v -14.16 h -36.08 v -143.23 h -15.76 v 143.23"
         style="fill:#231f20;fill-opacity:1;fill-rule:nonzero;stroke:none"
         transform="matrix(0.13333333,0,0,-0.13333333,0,432.69333)" />
      <path
         id="path39"
         d="m 4530.65,994.242 h 15.81 v -69.371 h 81.42 v 69.371 h 15.8 v -157.39 h -15.8 v 73.867 h -81.42 v -73.867 h -15.81 v 157.39"
         style="fill:#231f20;fill-opacity:1;fill-rule:nonzero;stroke:none"
         transform="matrix(0.13333333,0,0,-0.13333333,0,432.69333)" />
      <path
         id="path40"
         d="m 4672.95,994.242 h 86.13 v -14.16 h -70.33 v -56.641 h 67.96 v -14.152 h -67.96 V 851 h 70.33 v -14.148 h -86.13 v 157.39"
         style="fill:#231f20;fill-opacity:1;fill-rule:nonzero;stroke:none"
         transform="matrix(0.13333333,0,0,-0.13333333,0,432.69333)" />
      <path
         id="path41"
         d="M 4860.31,994.242 V 896.07 c 0,-29.011 14.4,-46.718 37.77,-46.718 23.36,0 37.75,17.707 37.75,46.718 v 98.172 h 15.8 V 896.07 c 0,-18.398 -3.78,-31.621 -11.8,-42.238 -9.43,-12.523 -25.01,-19.82 -41.75,-19.82 -16.76,0 -32.34,7.297 -41.77,19.82 -8.04,10.617 -11.82,23.84 -11.82,42.238 v 98.172 h 15.82"
         style="fill:#231f20;fill-opacity:1;fill-rule:nonzero;stroke:none"
         transform="matrix(0.13333333,0,0,-0.13333333,0,432.69333)" />
      <path
         id="path42"
         d="m 4984.21,994.242 h 21.23 L 5093.7,863.5 v 130.742 h 15.8 v -157.39 h -15.8 l -93.69,138.519 V 836.852 h -15.8 v 157.39"
         style="fill:#231f20;fill-opacity:1;fill-rule:nonzero;stroke:none"
         transform="matrix(0.13333333,0,0,-0.13333333,0,432.69333)" />
      <path
         id="path43"
         d="m 5148.21,994.242 h 15.8 v -157.39 h -15.8 v 157.39"
         style="fill:#231f20;fill-opacity:1;fill-rule:nonzero;stroke:none"
         transform="matrix(0.13333333,0,0,-0.13333333,0,432.69333)" />
      <path
         id="path44"
         d="m 5180.54,994.242 h 17.22 l 55.46,-137.812 55.69,137.812 h 17.22 l -65.37,-157.39 h -15.33 l -64.89,157.39"
         style="fill:#231f20;fill-opacity:1;fill-rule:nonzero;stroke:none"
         transform="matrix(0.13333333,0,0,-0.13333333,0,432.69333)" />
      <path
         id="path45"
         d="m 5342.66,994.242 h 86.13 v -14.16 h -70.33 v -56.641 h 67.98 v -14.152 h -67.98 V 851 h 70.33 v -14.148 h -86.13 v 157.39"
         style="fill:#231f20;fill-opacity:1;fill-rule:nonzero;stroke:none"
         transform="matrix(0.13333333,0,0,-0.13333333,0,432.69333)" />
      <path
         id="path46"
         d="m 5456.87,994.242 h 40.12 c 16.04,0 28.3,-1.652 35.86,-4.48 19.13,-7.782 30.92,-25.492 30.92,-46.492 0,-26.2 -19.35,-46.02 -46.72,-47.668 l 44.35,-58.75 h -19.58 l -53.56,71.257 c 23.83,0 28.79,0.461 36.33,3.313 14.65,5.187 23.36,17.687 23.36,33.027 0,11.793 -6.84,23.84 -16.97,29.723 -7.56,4.25 -16.3,5.91 -30.7,5.91 h -27.59 v -143.23 h -15.82 v 157.39"
         style="fill:#231f20;fill-opacity:1;fill-rule:nonzero;stroke:none"
         transform="matrix(0.13333333,0,0,-0.13333333,0,432.69333)" />
      <path
         id="path47"
         d="m 5598.22,880.969 c 1.18,-10.16 3.31,-16.039 8.02,-21.707 5.91,-6.832 15.1,-11.09 24.79,-11.09 16.98,0 31.37,14.629 31.37,31.629 0,8.488 -4,16.75 -10.84,22.41 -5.68,4.711 -11.34,7.309 -24.31,10.621 -16.28,4 -23.14,7.309 -29.5,13.688 -7.09,7.082 -11.09,17 -11.09,27.839 0,24.77 18.88,42.711 44.6,42.711 24.31,0 43.42,-18.648 43.42,-42.711 h -16.53 c -1.18,17 -12.73,28.563 -28.55,28.563 -15.34,0 -27.14,-12.262 -27.14,-28.082 0,-6.86 3.08,-13.93 7.56,-17.711 4.24,-3.527 11.32,-6.828 23.36,-10.129 18.63,-5.211 22.19,-6.609 29.27,-12.52 9.66,-8.261 15.57,-20.988 15.57,-33.98 0,-25.719 -21.47,-46.488 -47.92,-46.488 -27.84,0 -47.64,18.879 -48.84,46.957 h 16.76"
         style="fill:#231f20;fill-opacity:1;fill-rule:nonzero;stroke:none"
         transform="matrix(0.13333333,0,0,-0.13333333,0,432.69333)" />
      <path
         id="path48"
         d="m 5713.38,994.242 h 15.8 v -157.39 h -15.8 v 157.39"
         style="fill:#231f20;fill-opacity:1;fill-rule:nonzero;stroke:none"
         transform="matrix(0.13333333,0,0,-0.13333333,0,432.69333)" />
      <path
         id="path49"
         d="m 5794.56,980.082 h -36.11 v 14.16 h 88.01 v -14.16 h -36.1 v -143.23 h -15.8 v 143.23"
         style="fill:#231f20;fill-opacity:1;fill-rule:nonzero;stroke:none"
         transform="matrix(0.13333333,0,0,-0.13333333,0,432.69333)" />
      <path
         id="path50"
         d="m 5911.84,889.469 -54.76,104.773 h 17.47 l 45.08,-88.25 46.01,88.25 h 17.23 l -55.23,-104.773 v -52.617 h -15.8 v 52.617"
         style="fill:#231f20;fill-opacity:1;fill-rule:nonzero;stroke:none"
         transform="matrix(0.13333333,0,0,-0.13333333,0,432.69333)" />
      <path
         id="path51"
         d="m 6128.95,997.07 c -45.32,0 -83.31,-36.82 -83.31,-80.699 0,-45.562 37.04,-82.359 83.31,-82.359 45.3,0 83.3,36.797 83.3,80.707 0,45.773 -37.05,82.351 -83.3,82.351 z m 0,-14.148 c 37.28,0 67.48,-30.442 67.48,-68.203 0,-36.098 -30.92,-66.547 -67.48,-66.547 -37.29,0 -67.5,30.449 -67.5,67.957 0,36.101 30.91,66.793 67.5,66.793"
         style="fill:#231f20;fill-opacity:1;fill-rule:nonzero;stroke:none"
         transform="matrix(0.13333333,0,0,-0.13333333,0,432.69333)" />
      <path
         id="path52"
         d="m 6233.01,994.242 h 79.52 v -14.16 h -63.72 V 922.98 h 61.37 v -14.171 h -61.37 v -71.957 h -15.8 v 157.39"
         style="fill:#231f20;fill-opacity:1;fill-rule:nonzero;stroke:none"
         transform="matrix(0.13333333,0,0,-0.13333333,0,432.69333)" />
      <path
         id="path53"
         d="m 6426.5,980.082 h -36.1 v 14.16 h 88.04 v -14.16 h -36.12 v -143.23 h -15.82 v 143.23"
         style="fill:#231f20;fill-opacity:1;fill-rule:nonzero;stroke:none"
         transform="matrix(0.13333333,0,0,-0.13333333,0,432.69333)" />
      <path
         id="path54"
         d="m 6559.61,997.07 c -45.31,0 -83.3,-36.82 -83.3,-80.699 0,-45.562 37.03,-82.359 83.3,-82.359 45.3,0 83.3,36.797 83.3,80.707 0,45.773 -37.05,82.351 -83.3,82.351 z m 0,-14.148 c 37.28,0 67.48,-30.442 67.48,-68.203 0,-36.098 -30.9,-66.547 -67.48,-66.547 -37.29,0 -67.5,30.449 -67.5,67.957 0,36.101 30.92,66.793 67.5,66.793"
         style="fill:#231f20;fill-opacity:1;fill-rule:nonzero;stroke:none"
         transform="matrix(0.13333333,0,0,-0.13333333,0,432.69333)" />
      <path
         id="path55"
         d="m 6668.38,994.242 h 15.82 v -90.383 l 72.44,90.383 h 20.3 l -62.29,-76.691 62.29,-80.699 h -19.82 l -52.38,68.199 -20.54,-25.031 v -43.168 h -15.82 v 157.39"
         style="fill:#231f20;fill-opacity:1;fill-rule:nonzero;stroke:none"
         transform="matrix(0.13333333,0,0,-0.13333333,0,432.69333)" />
      <path
         id="path56"
         d="m 6838.77,889.469 -54.76,104.773 h 17.47 l 45.07,-88.25 46.03,88.25 h 17.22 l -55.23,-104.773 v -52.617 h -15.8 v 52.617"
         style="fill:#231f20;fill-opacity:1;fill-rule:nonzero;stroke:none"
         transform="matrix(0.13333333,0,0,-0.13333333,0,432.69333)" />
      <path
         id="path57"
         d="m 6992.63,997.07 c -45.32,0 -83.3,-36.82 -83.3,-80.699 0,-45.562 37.05,-82.359 83.3,-82.359 45.3,0 83.3,36.797 83.3,80.707 0,45.773 -37.05,82.351 -83.3,82.351 z m 0,-14.148 c 37.28,0 67.48,-30.442 67.48,-68.203 0,-36.098 -30.9,-66.547 -67.48,-66.547 -37.29,0 -67.5,30.449 -67.5,67.957 0,36.101 30.91,66.793 67.5,66.793"
         style="fill:#231f20;fill-opacity:1;fill-rule:nonzero;stroke:none"
         transform="matrix(0.13333333,0,0,-0.13333333,0,432.69333)" />
    </g>
  </g>
</svg>
